<svg width="32" height="32" viewBox="0 0 32 32" fill="none" xmlns="http://www.w3.org/2000/svg">
<circle cx="16" cy="16" r="15.25" stroke="#0F172A" stroke-width="1.5"/>
<path d="M19 13C21.7614 13 24 11.6569 24 10C24 8.34315 21.7614 7 19 7C16.2386 7 14 8.34315 14 10C14 11.6569 16.2386 13 19 13Z" stroke="#0F172A" stroke-width="1.5" stroke-linecap="round" stroke-linejoin="round"/>
<path d="M14 10V14C14 15.657 16.239 17 19 17C21.761 17 24 15.657 24 14V10" stroke="#0F172A" stroke-width="1.5" stroke-linecap="round" stroke-linejoin="round"/>
<path d="M14 14V18C14 19.657 16.239 21 19 21C21.761 21 24 19.657 24 18V14" stroke="#0F172A" stroke-width="1.5" stroke-linecap="round" stroke-linejoin="round"/>
<path d="M14 18V22C14 23.657 16.239 25 19 25C21.761 25 24 23.657 24 22V18M10 13H7.5C7.10218 13 6.72064 13.158 6.43934 13.4393C6.15804 13.7206 6 14.1022 6 14.5C6 14.8978 6.15804 15.2794 6.43934 15.5607C6.72064 15.842 7.10218 16 7.5 16H8.5C8.89782 16 9.27936 16.158 9.56066 16.4393C9.84196 16.7206 10 17.1022 10 17.5C10 17.8978 9.84196 18.2794 9.56066 18.5607C9.27936 18.842 8.89782 19 8.5 19H6M8 19V20M8 12V13" stroke="#0F172A" stroke-width="1.5" stroke-linecap="round" stroke-linejoin="round"/>
</svg>
