<svg width="24" height="24" viewBox="0 0 24 24" fill="none" xmlns="http://www.w3.org/2000/svg">
<path d="M19.07 19.07C22.98 15.16 22.98 8.83004 19.07 4.93004M4.93 4.93004C1.02 8.84004 1.02 15.17 4.93 19.07M8.7 21.41C9.77 21.78 10.88 21.96 12 21.96C13.12 21.95 14.23 21.78 15.3 21.41M8.7 2.59004C9.77 2.22004 10.88 2.04004 12 2.04004C13.12 2.04004 14.23 2.22004 15.3 2.59004" stroke="#0153FF" stroke-width="1.5" stroke-linecap="round" stroke-linejoin="round"/>
<path d="M8.73999 12V10.33C8.73999 8.25002 10.21 7.40002 12.01 8.44002L13.46 9.28002L14.91 10.12C16.71 11.16 16.71 12.86 14.91 13.9L13.46 14.74L12.01 15.58C10.21 16.62 8.73999 15.77 8.73999 13.69V12Z" stroke="#0153FF" stroke-width="1.5" stroke-miterlimit="10" stroke-linecap="round" stroke-linejoin="round"/>
</svg>
