<svg width="25" height="24" viewBox="0 0 25 24" fill="none" xmlns="http://www.w3.org/2000/svg">
<path d="M2.375 22H22.375" stroke="black" stroke-width="1.5" stroke-miterlimit="10" stroke-linecap="round" stroke-linejoin="round"/>
<path d="M3.32495 22.0001L3.37495 9.97007C3.37495 9.36007 3.66495 8.78007 4.14495 8.40007L11.145 2.95007C11.4971 2.67761 11.9297 2.52979 12.375 2.52979C12.8202 2.52979 13.2528 2.67761 13.605 2.95007L20.6049 8.39007C21.0949 8.77007 21.375 9.35007 21.375 9.97007V22.0001" stroke="black" stroke-width="1.5" stroke-miterlimit="10" stroke-linejoin="round"/>
<path d="M13.375 17H11.375C10.545 17 9.875 17.67 9.875 18.5V22H14.875V18.5C14.875 17.67 14.205 17 13.375 17ZM9.875 13.75H7.875C7.325 13.75 6.875 13.3 6.875 12.75V11.25C6.875 10.7 7.325 10.25 7.875 10.25H9.875C10.425 10.25 10.875 10.7 10.875 11.25V12.75C10.875 13.3 10.425 13.75 9.875 13.75ZM16.875 13.75H14.875C14.325 13.75 13.875 13.3 13.875 12.75V11.25C13.875 10.7 14.325 10.25 14.875 10.25H16.875C17.425 10.25 17.875 10.7 17.875 11.25V12.75C17.875 13.3 17.425 13.75 16.875 13.75Z" stroke="black" stroke-width="1.5" stroke-miterlimit="10" stroke-linejoin="round"/>
<path d="M19.3749 7L19.3449 4H14.9449" stroke="black" stroke-width="1.5" stroke-miterlimit="10" stroke-linecap="round" stroke-linejoin="round"/>
</svg>
