<svg width="66" height="20" viewBox="0 0 66 20" fill="none" xmlns="http://www.w3.org/2000/svg">
<rect width="66" height="20" rx="3" fill="#F1F5F9"/>
<path d="M8.65955 14L6.81175 12.5975L8.42457 10.6115L6 9.92707L6.70494 7.64937L9.0227 8.64797L8.86248 6H11.1482L10.988 8.64797L13.2951 7.64937L14 9.92707L11.5861 10.6115L13.1883 12.5975L11.3405 14L10.0053 11.8008L8.65955 14Z" fill="#94A3B8"/>
<path d="M23.6595 14L21.8117 12.5975L23.4246 10.6115L21 9.92707L21.7049 7.64937L24.0227 8.64797L23.8625 6H26.1482L25.988 8.64797L28.2951 7.64937L29 9.92707L26.5861 10.6115L28.1883 12.5975L26.3405 14L25.0053 11.8008L23.6595 14Z" fill="#94A3B8"/>
<path d="M38.6595 14L36.8117 12.5975L38.4246 10.6115L36 9.92707L36.7049 7.64937L39.0227 8.64797L38.8625 6H41.1482L40.988 8.64797L43.2951 7.64937L44 9.92707L41.5861 10.6115L43.1883 12.5975L41.3405 14L40.0053 11.8008L38.6595 14Z" fill="#94A3B8"/>
<path d="M53.6595 14L51.8117 12.5975L53.4246 10.6115L51 9.92707L51.7049 7.64937L54.0227 8.64797L53.8625 6H56.1482L55.988 8.64797L58.2951 7.64937L59 9.92707L56.5861 10.6115L58.1883 12.5975L56.3405 14L55.0053 11.8008L53.6595 14Z" fill="#94A3B8"/>
</svg>
