<svg width="112" height="64" viewBox="0 0 112 64" fill="none" xmlns="http://www.w3.org/2000/svg">
<path d="M37.73 23.5099L39.49 27.0299C39.73 27.5199 40.37 27.9899 40.91 28.0799L44.1 28.6099C46.14 28.9499 46.62 30.4299 45.15 31.8899L42.67 34.3699C42.25 34.7899 42.02 35.5999 42.15 36.1799L42.86 39.2499C43.42 41.6799 42.13 42.6199 39.98 41.3499L36.99 39.5799C36.45 39.2599 35.56 39.2599 35.01 39.5799L32.02 41.3499C29.88 42.6199 28.58 41.6699 29.14 39.2499L29.85 36.1799C29.98 35.5999 29.75 34.7899 29.33 34.3699L26.85 31.8899C25.39 30.4299 25.86 28.9499 27.9 28.6099L31.09 28.0799C31.62 27.9899 32.26 27.5199 32.5 27.0299L34.26 23.5099C35.22 21.5999 36.78 21.5999 37.73 23.5099Z" stroke="black" stroke-width="1.5" stroke-linecap="round" stroke-linejoin="round"/>
<path d="M80.96 26.1699C82.96 27.5599 84.3401 29.7699 84.6201 32.3199M67.49 32.3699C67.6158 31.1471 68.0022 29.9654 68.6232 28.9045C69.2442 27.8436 70.0854 26.9282 71.09 26.2199M72.19 40.9399C73.35 41.5299 74.67 41.8599 76.06 41.8599C77.4 41.8599 78.66 41.5599 79.79 41.0099M76.06 27.6999C76.7974 27.6999 77.5045 27.407 78.0258 26.8856C78.5472 26.3643 78.84 25.6572 78.84 24.9199C78.84 24.1826 78.5472 23.4755 78.0258 22.9541C77.5045 22.4328 76.7974 22.1399 76.06 22.1399C75.3227 22.1399 74.6156 22.4328 74.0943 22.9541C73.5729 23.4755 73.28 24.1826 73.28 24.9199C73.28 25.6572 73.5729 26.3643 74.0943 26.8856C74.6156 27.407 75.3227 27.6999 76.06 27.6999ZM68.83 39.9199C69.5674 39.9199 70.2745 39.627 70.7958 39.1056C71.3172 38.5843 71.61 37.8772 71.61 37.1399C71.61 36.4026 71.3172 35.6955 70.7958 35.1741C70.2745 34.6528 69.5674 34.3599 68.83 34.3599C68.0927 34.3599 67.3856 34.6528 66.8643 35.1741C66.3429 35.6955 66.05 36.4026 66.05 37.1399C66.05 37.8772 66.3429 38.5843 66.8643 39.1056C67.3856 39.627 68.0927 39.9199 68.83 39.9199ZM83.17 39.9199C83.9074 39.9199 84.6145 39.627 85.1358 39.1056C85.6572 38.5843 85.9501 37.8772 85.9501 37.1399C85.9501 36.4026 85.6572 35.6955 85.1358 35.1741C84.6145 34.6528 83.9074 34.3599 83.17 34.3599C82.4327 34.3599 81.7256 34.6528 81.2043 35.1741C80.6829 35.6955 80.39 36.4026 80.39 37.1399C80.39 37.8772 80.6829 38.5843 81.2043 39.1056C81.7256 39.627 82.4327 39.9199 83.17 39.9199Z" stroke="black" stroke-width="1.5" stroke-linecap="round" stroke-linejoin="round"/>
</svg>
