<svg width="536" height="96" viewBox="0 0 536 96" fill="none" xmlns="http://www.w3.org/2000/svg">
<path d="M28.375 48L25.125 44.75L21.875 48L25.125 51.25L31.625 44.75L34.875 48L31.625 51.25L28.375 48Z" stroke="#0153FF" stroke-width="1.5" stroke-miterlimit="10" stroke-linecap="round" stroke-linejoin="round"/>
<path d="M28.375 58C33.8978 58 38.375 53.5228 38.375 48C38.375 42.4772 33.8978 38 28.375 38C22.8522 38 18.375 42.4772 18.375 48C18.375 53.5228 22.8522 58 28.375 58Z" stroke="#0153FF" stroke-width="1.5" stroke-miterlimit="10"/>
<rect x="0.5" y="20.5" width="55" height="55" rx="27.5" stroke="#E2E8F0"/>
<path d="M108.375 48L105.125 44.75L101.875 48L105.125 51.25L111.625 44.75L114.875 48L111.625 51.25L108.375 48Z" stroke="#0153FF" stroke-width="1.5" stroke-miterlimit="10" stroke-linecap="round" stroke-linejoin="round"/>
<path d="M108.375 58C113.898 58 118.375 53.5228 118.375 48C118.375 42.4772 113.898 38 108.375 38C102.852 38 98.375 42.4772 98.375 48C98.375 53.5228 102.852 58 108.375 58Z" stroke="#0153FF" stroke-width="1.5" stroke-miterlimit="10"/>
<rect x="80.5" y="20.5" width="55" height="55" rx="27.5" stroke="#E2E8F0"/>
<path d="M188.375 48L185.125 44.75L181.875 48L185.125 51.25L191.625 44.75L194.875 48L191.625 51.25L188.375 48Z" stroke="#0153FF" stroke-width="1.5" stroke-miterlimit="10" stroke-linecap="round" stroke-linejoin="round"/>
<path d="M188.375 58C193.898 58 198.375 53.5228 198.375 48C198.375 42.4772 193.898 38 188.375 38C182.852 38 178.375 42.4772 178.375 48C178.375 53.5228 182.852 58 188.375 58Z" stroke="#0153FF" stroke-width="1.5" stroke-miterlimit="10"/>
<rect x="160.5" y="20.5" width="55" height="55" rx="27.5" stroke="#E2E8F0"/>
<g clip-path="url(#clip0_29_2055)">
<path d="M268.375 48L265.125 44.75L261.875 48L265.125 51.25L271.625 44.75L274.875 48L271.625 51.25L268.375 48Z" stroke="#0153FF" stroke-width="1.5" stroke-miterlimit="10" stroke-linecap="round" stroke-linejoin="round"/>
<path d="M268.375 58C273.898 58 278.375 53.5228 278.375 48C278.375 42.4772 273.898 38 268.375 38C262.852 38 258.375 42.4772 258.375 48C258.375 53.5228 262.852 58 268.375 58Z" stroke="#0153FF" stroke-width="1.5" stroke-miterlimit="10"/>
<rect x="240.5" y="20.5" width="55" height="55" rx="27.5" stroke="#E2E8F0"/>
</g>
<path d="M348.375 48L345.125 44.75L341.875 48L345.125 51.25L351.625 44.75L354.875 48L351.625 51.25L348.375 48Z" stroke="#0153FF" stroke-width="1.5" stroke-miterlimit="10" stroke-linecap="round" stroke-linejoin="round"/>
<path d="M348.375 58C353.898 58 358.375 53.5228 358.375 48C358.375 42.4772 353.898 38 348.375 38C342.852 38 338.375 42.4772 338.375 48C338.375 53.5228 342.852 58 348.375 58Z" stroke="#0153FF" stroke-width="1.5" stroke-miterlimit="10"/>
<rect x="320.5" y="20.5" width="55" height="55" rx="27.5" stroke="#E2E8F0"/>
<path d="M428.375 48L425.125 44.75L421.875 48L425.125 51.25L431.625 44.75L434.875 48L431.625 51.25L428.375 48Z" stroke="#0153FF" stroke-width="1.5" stroke-miterlimit="10" stroke-linecap="round" stroke-linejoin="round"/>
<path d="M428.375 58C433.898 58 438.375 53.5228 438.375 48C438.375 42.4772 433.898 38 428.375 38C422.852 38 418.375 42.4772 418.375 48C418.375 53.5228 422.852 58 428.375 58Z" stroke="#0153FF" stroke-width="1.5" stroke-miterlimit="10"/>
<rect x="400.5" y="20.5" width="55" height="55" rx="27.5" stroke="#E2E8F0"/>
<path d="M508.375 48L505.125 44.75L501.875 48L505.125 51.25L511.625 44.75L514.875 48L511.625 51.25L508.375 48Z" stroke="#0153FF" stroke-width="1.5" stroke-miterlimit="10" stroke-linecap="round" stroke-linejoin="round"/>
<path d="M508.375 58C513.898 58 518.375 53.5228 518.375 48C518.375 42.4772 513.898 38 508.375 38C502.852 38 498.375 42.4772 498.375 48C498.375 53.5228 502.852 58 508.375 58Z" stroke="#0153FF" stroke-width="1.5" stroke-miterlimit="10"/>
<rect x="480.5" y="20.5" width="55" height="55" rx="27.5" stroke="#E2E8F0"/>
<defs>
<clipPath id="clip0_29_2055">
<rect width="56" height="56" fill="white" transform="translate(240 20)"/>
</clipPath>
</defs>
</svg>
