<svg width="24" height="24" viewBox="0 0 24 24" fill="none" xmlns="http://www.w3.org/2000/svg">
<path d="M4.40997 16.75C4.16997 19.64 6.34997 22 9.24997 22H14.04C17.3 22 19.54 19.37 19 16.15C18.43 12.77 15.17 10 11.74 10C8.01997 10 4.71997 13.04 4.40997 16.75ZM10.47 7.5C11.133 7.5 11.7689 7.23661 12.2377 6.76777C12.7066 6.29893 12.97 5.66304 12.97 5C12.97 4.33696 12.7066 3.70107 12.2377 3.23223C11.7689 2.76339 11.133 2.5 10.47 2.5C9.80693 2.5 9.17104 2.76339 8.7022 3.23223C8.23336 3.70107 7.96997 4.33696 7.96997 5C7.96997 5.66304 8.23336 6.29893 8.7022 6.76777C9.17104 7.23661 9.80693 7.5 10.47 7.5ZM17.3 8.7C17.8304 8.7 18.3391 8.48929 18.7142 8.11421C19.0893 7.73914 19.3 7.23043 19.3 6.7C19.3 6.16957 19.0893 5.66086 18.7142 5.28579C18.3391 4.91071 17.8304 4.7 17.3 4.7C16.7695 4.7 16.2608 4.91071 15.8858 5.28579C15.5107 5.66086 15.3 6.16957 15.3 6.7C15.3 7.23043 15.5107 7.73914 15.8858 8.11421C16.2608 8.48929 16.7695 8.7 17.3 8.7ZM21 12.7C21.197 12.7 21.392 12.6612 21.574 12.5858C21.756 12.5104 21.9213 12.3999 22.0606 12.2607C22.1999 12.1214 22.3104 11.956 22.3858 11.774C22.4612 11.592 22.5 11.397 22.5 11.2C22.5 11.003 22.4612 10.808 22.3858 10.626C22.3104 10.444 22.1999 10.2786 22.0606 10.1393C21.9213 10.0001 21.756 9.88956 21.574 9.81418C21.392 9.7388 21.197 9.7 21 9.7C20.6021 9.7 20.2206 9.85803 19.9393 10.1393C19.658 10.4206 19.5 10.8022 19.5 11.2C19.5 11.5978 19.658 11.9794 19.9393 12.2607C20.2206 12.542 20.6021 12.7 21 12.7ZM3.96997 10.7C4.5004 10.7 5.00911 10.4893 5.38418 10.1142C5.75926 9.73914 5.96997 9.23043 5.96997 8.7C5.96997 8.16957 5.75926 7.66086 5.38418 7.28579C5.00911 6.91071 4.5004 6.7 3.96997 6.7C3.43954 6.7 2.93083 6.91071 2.55576 7.28579C2.18068 7.66086 1.96997 8.16957 1.96997 8.7C1.96997 9.23043 2.18068 9.73914 2.55576 10.1142C2.93083 10.4893 3.43954 10.7 3.96997 10.7Z" stroke="#0153FF" stroke-width="1.5" stroke-linecap="round" stroke-linejoin="round"/>
</svg>
