<svg width="97" height="40" viewBox="0 0 97 40" fill="none" xmlns="http://www.w3.org/2000/svg">
<line x1="0.5" y1="19.25" x2="96.5" y2="19.25" stroke="#E2E8F0" stroke-linecap="round" stroke-dasharray="4 4"/>
<path d="M94 13.25C92 13.25 88.3067 17.5407 88 17.75C87.6095 18.0165 84.4324 18.4527 84 18.75C83.6017 19.0239 83.3012 22.4572 82.7983 22.9167C82.363 23.3143 80.5642 23.4444 80.0517 23.9722C79.5391 24.5 79.0003 29.25 78.0898 29.25C77.5487 29.25 75.8677 26.875 75.4767 26.875C74.6947 26.875 75.4813 38.75 74.1661 38.75C73.3627 38.75 72.7444 34.5278 72.2042 34C71.7438 33.5501 70.951 32.9008 70.6347 32.4167C70.2508 31.8292 69.2467 29.2889 69.0207 28.775C68.7886 28.2472 66.2849 24.5 65.3316 24.5C64.1074 24.5 60.7428 29.0292 60.0406 29.25C59.3385 29.4708 55.8632 29.5651 54.9398 29.25C54.3678 29.0548 49.2849 10.25 47.877 10.25C46.7205 10.25 44.593 12.8889 43.9533 12.8889C43.029 12.8889 39.1191 0.750009 38.0677 0.75C36.7732 0.749979 32.413 17.4576 31.7897 18.1667C31.2993 18.7246 25.5275 22.3889 25.1194 22.9167C24.5421 23.6633 22.2443 30.3056 21.1335 30.3056C19.6593 30.3056 13.6839 12.8889 11.7787 12.8889C10.2031 12.8889 7.22796 21.65 3.99998 21.65" stroke="#1DCE5C" stroke-width="1.5" stroke-linecap="round"/>
</svg>
