<svg width="14" height="14" viewBox="0 0 14 14" fill="none" xmlns="http://www.w3.org/2000/svg">
<path d="M7.58335 6.99992C7.58335 6.67775 7.32219 6.41658 7.00002 6.41658C6.67785 6.41658 6.41669 6.67775 6.41669 6.99992C6.41669 7.32208 6.67785 7.58325 7.00002 7.58325C7.32219 7.58325 7.58335 7.32208 7.58335 6.99992Z" stroke="#94A3B8" stroke-width="2" stroke-linecap="round" stroke-linejoin="round"/>
<path d="M11.6667 6.99992C11.6667 6.67775 11.4055 6.41658 11.0833 6.41658C10.7612 6.41658 10.5 6.67775 10.5 6.99992C10.5 7.32208 10.7612 7.58325 11.0833 7.58325C11.4055 7.58325 11.6667 7.32208 11.6667 6.99992Z" stroke="#94A3B8" stroke-width="2" stroke-linecap="round" stroke-linejoin="round"/>
<path d="M3.50001 6.99992C3.50001 6.67775 3.23884 6.41658 2.91668 6.41658C2.59451 6.41658 2.33334 6.67775 2.33334 6.99992C2.33334 7.32208 2.59451 7.58325 2.91668 7.58325C3.23884 7.58325 3.50001 7.32208 3.50001 6.99992Z" stroke="#94A3B8" stroke-width="2" stroke-linecap="round" stroke-linejoin="round"/>
</svg>
