<svg width="27" height="25" viewBox="0 0 27 25" fill="none" xmlns="http://www.w3.org/2000/svg">
<path d="M10.7521 17.8601V19.8901C10.7521 21.6101 9.15205 23.0001 7.18205 23.0001C5.21205 23.0001 3.60205 21.6101 3.60205 19.8901V17.8601C3.60205 19.5801 5.20205 20.8001 7.18205 20.8001C9.15205 20.8001 10.7521 19.5701 10.7521 17.8601Z" stroke="black" stroke-width="1.5" stroke-linecap="round" stroke-linejoin="round"/>
<path d="M10.75 15.11C10.75 15.61 10.61 16.07 10.37 16.47C9.77997 17.44 8.56997 18.05 7.16997 18.05C5.76997 18.05 4.55997 17.43 3.96997 16.47C3.72997 16.07 3.58997 15.61 3.58997 15.11C3.58997 14.25 3.98997 13.48 4.62997 12.92C5.27997 12.35 6.16997 12.01 7.15997 12.01C8.14997 12.01 9.03997 12.36 9.68997 12.92C10.35 13.47 10.75 14.25 10.75 15.11Z" stroke="black" stroke-width="1.5" stroke-linecap="round" stroke-linejoin="round"/>
<path d="M10.7521 15.11V17.86C10.7521 19.58 9.15205 20.8 7.18205 20.8C5.21205 20.8 3.60205 19.57 3.60205 17.86V15.11C3.60205 13.39 5.20205 12 7.18205 12C8.17205 12 9.06205 12.35 9.71205 12.91C10.3521 13.47 10.7521 14.25 10.7521 15.11ZM22.0001 11.97V14.03C22.0001 14.58 21.5601 15.03 21.0001 15.05H19.0401C17.9601 15.05 16.97 14.26 16.88 13.18C16.82 12.55 17.0601 11.96 17.4801 11.55C17.8501 11.17 18.3601 10.95 18.9201 10.95H21.0001C21.5601 10.97 22.0001 11.42 22.0001 11.97Z" stroke="black" stroke-width="1.5" stroke-linecap="round" stroke-linejoin="round"/>
<path d="M2 11.5V9.5C2 6.78 3.64 4.88 6.19 4.56C6.45 4.52 6.72 4.5 7 4.5H16C16.26 4.5 16.51 4.51 16.75 4.55C19.33 4.85 21 6.76 21 9.5V10.95H18.92C18.36 10.95 17.85 11.17 17.48 11.55C17.06 11.96 16.82 12.55 16.88 13.18C16.97 14.26 17.96 15.05 19.04 15.05H21V16.5C21 19.5 19 21.5 16 21.5H13.5" stroke="black" stroke-width="1.5" stroke-linecap="round" stroke-linejoin="round"/>
</svg>
