<svg width="40" height="44" viewBox="0 0 40 44" fill="none" xmlns="http://www.w3.org/2000/svg">
<path d="M34.9201 7.99146L34.9512 7.9934C36.7638 8.1064 38.2123 9.69717 37.9766 11.5213C37.6479 14.5484 36.8308 19.9106 34.7174 26.8025L34.9201 7.99146ZM34.9201 7.99146H34.889M34.9201 7.99146H34.889M34.889 7.99146C34.8069 7.99146 34.6267 7.96861 34.3397 7.90119C34.0692 7.83764 33.7584 7.74785 33.4392 7.64655C32.8216 7.45053 32.2178 7.22592 31.8872 7.1023C30.7556 6.58769 29.3846 5.73573 27.8876 4.80551C27.2441 4.4057 26.5775 3.99142 25.8965 3.58327C24.7889 2.91934 23.6595 2.28394 22.5982 1.81297C21.5566 1.35077 20.4797 1 19.5012 1C18.5262 1 17.4516 1.34347 16.4091 1.79956C15.3473 2.26405 14.2178 2.89176 13.1088 3.5514C12.3479 4.00403 11.6047 4.4656 10.8914 4.90867C9.47413 5.78894 8.17449 6.59616 7.08661 7.11503C6.83166 7.22259 6.2331 7.44655 5.59754 7.64526C5.27463 7.74622 4.95595 7.83629 4.67842 7.90017C4.38369 7.96801 4.19724 7.99146 4.11346 7.99146H4.08232M34.889 7.99146H4.08232M4.08232 7.99146L4.05124 7.9934M4.08232 7.99146L4.05124 7.9934M4.05124 7.9934C2.23866 8.1064 0.790169 9.69719 1.02583 11.5213C1.35452 14.5486 2.17173 19.9111 4.2853 26.8035L4.2877 26.8113M4.05124 7.9934L4.2877 26.8113M4.2877 26.8113L4.29022 26.8191M4.2877 26.8113L4.29022 26.8191M4.29022 26.8191C7.1497 35.6276 15.0082 40.8507 17.951 42.563L17.96 42.5682M4.29022 26.8191L17.96 42.5682M17.96 42.5682L17.9692 42.5733M17.96 42.5682L17.9692 42.5733M17.9692 42.5733C18.9958 43.1422 20.1678 43.1422 21.1944 42.5733L21.2036 42.5682M17.9692 42.5733L21.2036 42.5682M21.2036 42.5682L21.2126 42.563M21.2036 42.5682L21.2126 42.563M21.2126 42.563C24.1527 40.8522 32.0215 35.6248 34.7171 26.8035L21.2126 42.563Z" fill="#0153FF" stroke="white" stroke-width="2"/>
</svg>
