<svg width="14" height="15" viewBox="0 0 14 15" fill="none" xmlns="http://www.w3.org/2000/svg">
<path d="M9.09416 7.6625C9.88782 7.6625 10.649 7.3247 11.2102 6.72341C11.7714 6.12212 12.0867 5.3066 12.0867 4.45625C12.0867 3.6059 11.7714 2.79038 11.2102 2.18909C10.649 1.5878 9.88782 1.25 9.09416 1.25C8.3005 1.25 7.53935 1.5878 6.97815 2.18909C6.41694 2.79038 6.10166 3.6059 6.10166 4.45625C6.10166 5.3066 6.41694 6.12212 6.97815 6.72341C7.53935 7.3247 8.3005 7.6625 9.09416 7.6625ZM3.71 12.15C4.1865 12.15 4.64349 11.9472 4.98043 11.5862C5.31737 11.2252 5.50666 10.7355 5.50666 10.225C5.50666 9.71446 5.31737 9.22483 4.98043 8.86382C4.64349 8.50281 4.1865 8.3 3.71 8.3C3.23349 8.3 2.7765 8.50281 2.43956 8.86382C2.10262 9.22483 1.91333 9.71446 1.91333 10.225C1.91333 10.7355 2.10262 11.2252 2.43956 11.5862C2.7765 11.9472 3.23349 12.15 3.71 12.15ZM9.695 13.75C9.8911 13.75 10.0853 13.7086 10.2665 13.6282C10.4477 13.5478 10.6123 13.4299 10.7509 13.2814C10.8896 13.1328 10.9996 12.9564 11.0747 12.7623C11.1497 12.5682 11.1883 12.3601 11.1883 12.15C11.1883 11.9399 11.1497 11.7318 11.0747 11.5377C10.9996 11.3436 10.8896 11.1672 10.7509 11.0186C10.6123 10.8701 10.4477 10.7522 10.2665 10.6718C10.0853 10.5914 9.8911 10.55 9.695 10.55C9.29894 10.55 8.9191 10.7186 8.63905 11.0186C8.359 11.3187 8.20166 11.7257 8.20166 12.15C8.20166 12.5743 8.359 12.9813 8.63905 13.2814C8.9191 13.5814 9.29894 13.75 9.695 13.75Z" stroke="white" stroke-width="1.5" stroke-miterlimit="10"/>
</svg>
