<svg width="22" height="22" viewBox="0 0 22 22" fill="none" xmlns="http://www.w3.org/2000/svg">
<g clip-path="url(#clip0_40_1157)">
<path d="M16.5366 12.4208C16.1516 12.7966 15.9316 13.3375 15.9866 13.915C16.0691 14.905 16.9766 15.6291 17.9666 15.6291H19.7083V16.72C19.7083 18.6175 18.1591 20.1666 16.2616 20.1666H6.99413C7.27829 19.9283 7.52579 19.635 7.71829 19.305C8.05746 18.755 8.24996 18.1041 8.24996 17.4166C8.24989 16.7259 8.05465 16.0492 7.68674 15.4646C7.31883 14.8799 6.79323 14.4112 6.17049 14.1122C5.54776 13.8133 4.85324 13.6965 4.16698 13.7751C3.48071 13.8537 2.83062 14.1246 2.29163 14.5566V10.5508C2.29163 8.65329 3.84079 7.10413 5.73829 7.10413H16.2616C18.1591 7.10413 19.7083 8.65329 19.7083 10.5508V11.8708H17.8566C17.3433 11.8708 16.8758 12.0725 16.5366 12.4208Z" stroke="white" stroke-width="1.5" stroke-linecap="round" stroke-linejoin="round"/>
<path d="M2.29163 11.3759V7.1867C2.29163 6.09587 2.96079 5.1242 3.97829 4.7392L11.2566 1.9892C11.5203 1.88982 11.8042 1.85592 12.0839 1.89041C12.3636 1.9249 12.6308 2.02674 12.8625 2.1872C13.0941 2.34766 13.2834 2.56194 13.414 2.81166C13.5447 3.06137 13.6128 3.33905 13.6125 3.62087V7.1042M6.41663 11H12.8333M20.679 12.8059V14.6942C20.679 15.1984 20.2757 15.6109 19.7624 15.6292H17.9657C16.9757 15.6292 16.0682 14.905 15.9857 13.915C15.9307 13.3375 16.1507 12.7967 16.5357 12.4209C16.8749 12.0725 17.3424 11.8709 17.8557 11.8709H19.7624C20.2757 11.8892 20.679 12.3017 20.679 12.8059Z" stroke="white" stroke-width="1.5" stroke-linecap="round" stroke-linejoin="round"/>
<path d="M8.24997 17.4167C8.24997 18.1042 8.05747 18.755 7.7183 19.305C7.5258 19.635 7.2783 19.9284 6.99413 20.1667C6.35247 20.7442 5.50913 21.0834 4.5833 21.0834C3.95132 21.0847 3.32988 20.9214 2.78018 20.6096C2.23048 20.2978 1.77145 19.8482 1.4483 19.305C1.09936 18.7371 0.915279 18.0833 0.916633 17.4167C0.916633 16.2617 1.4483 15.2259 2.29163 14.5567C2.83063 14.1247 3.48072 13.8538 4.16699 13.7752C4.85325 13.6965 5.54777 13.8134 6.1705 14.1123C6.79323 14.4112 7.31884 14.88 7.68675 15.4647C8.05466 16.0493 8.24989 16.726 8.24997 17.4167Z" stroke="white" stroke-width="1.5" stroke-miterlimit="10" stroke-linecap="round" stroke-linejoin="round"/>
<path d="M3.1543 17.4166L4.0618 18.3241L6.0143 16.5183" stroke="white" stroke-width="1.5" stroke-linecap="round" stroke-linejoin="round"/>
</g>
<defs>
<clipPath id="clip0_40_1157">
<rect width="22" height="22" fill="white"/>
</clipPath>
</defs>
</svg>
