<svg width="46" height="50" viewBox="0 0 46 50" fill="none" xmlns="http://www.w3.org/2000/svg">
<path d="M5.29865 42.1436C3.345 36.9223 0.0618044 23.9096 11.239 16.5858C22.7264 9.0282 34.1363 15.2621 37.8091 19.5462C41.7164 24.1434 43.358 30.3773 41.0923 34.586C38.5902 39.2605 30.386 39.0267 29.2909 33.2604C28.6649 29.9888 28.6649 26.0913 23.3524 25.3917C18.5846 24.7675 15.2239 28.5859 16.1619 34.586C17.1775 40.818 21.0848 45.4152 29.9169 48.9997" stroke="#0F172A" stroke-width="2" stroke-linecap="round" stroke-linejoin="round"/>
<path d="M18.1166 48.9997C15.3497 46.9689 13.1218 44.2989 11.6221 41.2159C10.1299 38.1347 9.40175 34.7349 9.519 31.3125C9.83295 19.8592 20.3823 18.5336 23.9775 18.8448C26.9468 19.0786 34.4493 20.7945 35.7789 31.3125" stroke="#0F172A" stroke-width="2" stroke-linecap="round" stroke-linejoin="round"/>
<path d="M22.6492 31.3899C22.6492 35.2856 24.9149 45.4944 38.0439 43.4673" stroke="#0F172A" stroke-width="2" stroke-linecap="round" stroke-linejoin="round"/>
<path d="M1.00012 18.2998C3.60246 14.6907 7.06533 11.7831 11.0823 9.839C15.0918 7.89304 19.5229 6.97285 23.9768 7.15764C37.1058 7.54797 44.9998 18.924 44.9998 18.924" stroke="#0F172A" stroke-width="2" stroke-linecap="round" stroke-linejoin="round"/>
<path d="M6.94051 5.20982C14.1291 0.612662 26.634 -1.33519 38.4353 5.20982" stroke="#0F172A" stroke-width="2" stroke-linecap="round" stroke-linejoin="round"/>
</svg>
