<svg width="252" height="78" viewBox="0 0 252 78" fill="none" xmlns="http://www.w3.org/2000/svg">
<path d="M0.358881 75.7582C0.00526152 75.9747 -0.105906 76.4369 0.110582 76.7905C0.32707 77.1441 0.789233 77.2553 1.14285 77.0388L0.358881 75.7582ZM245.087 6.75494C246.606 8.3617 249.14 8.43258 250.747 6.91326C252.354 5.39395 252.425 2.85976 250.905 1.25301C249.386 -0.353745 246.852 -0.424628 245.245 1.09469C243.638 2.614 243.567 5.14819 245.087 6.75494ZM1.14285 77.0388C1.57139 76.7764 2.00076 76.5141 2.43096 76.2519L1.6494 74.9698C1.21838 75.2326 0.788211 75.4954 0.358881 75.7582L1.14285 77.0388ZM5.02233 74.679C5.88552 74.1574 6.75213 73.6361 7.62224 73.1153L6.85103 71.827C5.9791 72.3489 5.11072 72.8713 4.2458 73.3939L5.02233 74.679ZM10.2246 71.565C11.0928 71.0504 11.9645 70.5363 12.8398 70.0227L12.0801 68.7277C11.2027 69.2424 10.329 69.7577 9.45894 70.2734L10.2246 71.565ZM15.4537 68.4974C16.3275 67.9903 17.2048 67.4839 18.0859 66.9783L17.3385 65.676C16.4553 66.1829 15.5758 66.6905 14.7 67.1988L15.4537 68.4974ZM20.7118 65.48C21.5908 64.9814 22.4735 64.4836 23.3601 63.9868L22.6261 62.677C21.7372 63.1751 20.8522 63.6741 19.971 64.174L20.7118 65.48ZM26.0005 62.5164C26.8836 62.0277 27.7706 61.5399 28.6615 61.0533L27.9417 59.7356C27.0484 60.2236 26.159 60.7126 25.2734 61.2027L26.0005 62.5164ZM31.3212 59.61C32.2086 59.1318 33.0998 58.6546 33.9949 58.1788L33.2901 56.853C32.3924 57.3302 31.4987 57.8087 30.6088 58.2883L31.3212 59.61ZM36.6753 56.764C37.5668 56.2967 38.4622 55.8308 39.3616 55.3662L38.6726 54.0322C37.7705 54.4981 36.8724 54.9654 35.9783 55.434L36.6753 56.764ZM42.0638 53.981C42.9594 53.5253 43.8589 53.0711 44.7624 52.6184L44.0899 51.276C43.1835 51.7301 42.2812 52.1857 41.383 52.6427L42.0638 53.981ZM47.4853 51.2649C48.3856 50.8209 49.2899 50.3785 50.1982 49.9377L49.5427 48.5868C48.6314 49.029 47.7243 49.4729 46.8212 49.9182L47.4853 51.2649ZM52.9331 48.6214C53.8411 48.188 54.7533 47.7562 55.6696 47.3262L55.0317 45.967C54.1124 46.3984 53.1973 46.8315 52.2863 47.2664L52.9331 48.6214ZM58.4157 46.0485C59.3321 45.6259 60.2525 45.205 61.1771 44.786L60.5574 43.4184C59.6297 43.8388 58.7062 44.261 57.7869 44.6851L58.4157 46.0485ZM63.9338 43.548C64.8568 43.1372 65.7841 42.7283 66.7155 42.3213L66.1144 40.9454C65.1798 41.3537 64.2494 41.764 63.3233 42.1762L63.9338 43.548ZM69.4876 41.1214C70.4138 40.7243 71.3442 40.3291 72.2789 39.9359L71.6967 38.5519C70.7588 38.9464 69.8253 39.3429 68.8959 39.7414L69.4876 41.1214ZM75.0775 38.7701C76.0065 38.3869 76.9398 38.0057 77.8772 37.6267L77.3143 36.2347C76.3736 36.6151 75.4372 36.9975 74.505 37.3821L75.0775 38.7701ZM80.7023 36.4959C81.6343 36.1266 82.5704 35.7595 83.5108 35.3945L82.9675 33.9948C82.0239 34.361 81.0845 34.7294 80.1493 35.0999L80.7023 36.4959ZM86.343 34.3068C87.2844 33.9491 88.23 33.5935 89.1799 33.2402L88.6565 31.8329C87.7033 32.1875 86.7544 32.5443 85.8096 32.9032L86.343 34.3068ZM92.0179 32.1962C92.9681 31.8504 93.9225 31.5069 94.8813 31.1658L94.3779 29.7512C93.4158 30.0935 92.458 30.4382 91.5044 30.7852L92.0179 32.1962ZM97.7272 30.1644C98.6788 29.8334 99.6346 29.5047 100.595 29.1784L100.111 27.7568C99.148 28.0842 98.1888 28.4141 97.2339 28.7463L97.7272 30.1644ZM103.472 28.2119C104.424 27.8956 105.381 27.5818 106.341 27.2703L105.878 25.842C104.914 26.1546 103.954 26.4695 102.998 26.7869L103.472 28.2119ZM109.237 26.3432C110.194 26.0403 111.156 25.7398 112.122 25.4417L111.679 24.007C110.71 24.3061 109.745 24.6076 108.784 24.9116L109.237 26.3432ZM115.018 24.5594C115.987 24.2679 116.96 23.9789 117.937 23.6924L117.515 22.2515C116.534 22.539 115.558 22.8291 114.585 23.1216L115.018 24.5594ZM120.832 22.8549C121.801 22.5782 122.774 22.3039 123.752 22.0322L123.35 20.5856C122.369 20.8582 121.392 21.1334 120.42 21.4111L120.832 22.8549ZM126.68 21.2292C127.648 20.9674 128.62 20.7081 129.596 20.4513L129.214 18.9992C128.235 19.2569 127.259 19.5171 126.288 19.7798L126.68 21.2292ZM132.538 19.6886C133.512 19.4394 134.491 19.1927 135.474 18.9486L135.112 17.4914C134.126 17.7363 133.144 17.9838 132.166 18.2339L132.538 19.6886ZM138.41 18.2303C139.393 17.9934 140.38 17.7591 141.371 17.5274L141.029 16.0653C140.034 16.2978 139.044 16.5329 138.058 16.7706L138.41 18.2303ZM144.315 16.8493C145.296 16.627 146.28 16.4074 147.268 16.1903L146.946 14.7237C145.954 14.9416 144.967 15.162 143.983 15.3849L144.315 16.8493ZM150.245 15.5468C151.226 15.3384 152.21 15.1325 153.199 14.9292L152.896 13.4585C151.904 13.6625 150.917 13.869 149.933 14.0782L150.245 15.5468ZM156.166 14.3291C157.159 14.1316 158.156 13.9368 159.157 13.7446L158.874 12.27C157.87 12.4628 156.869 12.6583 155.873 12.8564L156.166 14.3291ZM162.119 13.186C163.108 13.0027 164.102 12.822 165.099 12.644L164.835 11.1659C163.834 11.3445 162.838 11.5257 161.846 11.7096L162.119 13.186ZM168.102 12.1177C169.088 11.948 170.079 11.781 171.073 11.6165L170.828 10.1351C169.831 10.3001 168.837 10.4677 167.847 10.6379L168.102 12.1177ZM174.062 11.1318C175.062 10.9728 176.066 10.8165 177.074 10.6628L176.848 9.17843C175.837 9.33261 174.83 9.48945 173.826 9.64891L174.062 11.1318ZM180.057 10.2174C181.051 10.072 182.05 9.92915 183.052 9.78892L182.844 8.30191C181.839 8.44257 180.837 8.58584 179.839 8.73169L180.057 10.2174ZM186.071 9.37607C187.066 9.24313 188.064 9.11275 189.066 8.98496L188.876 7.49553C187.871 7.6237 186.87 7.75448 185.872 7.88781L186.071 9.37607ZM192.066 8.61152C193.07 8.48961 194.077 8.37029 195.089 8.2536L194.916 6.762C193.902 6.87905 192.892 6.99872 191.885 7.12097L192.066 8.61152ZM198.099 7.9152C199.095 7.80609 200.096 7.6995 201.1 7.59548L200.946 6.10198C199.939 6.2063 198.935 6.3132 197.935 6.42263L198.099 7.9152ZM204.124 7.29113C205.13 7.19286 206.139 7.09714 207.152 7.00401L207.014 5.50883C205.998 5.60222 204.986 5.6982 203.978 5.79675L204.124 7.29113ZM210.153 6.73657C211.157 6.64995 212.164 6.56584 213.176 6.48431L213.055 4.98768C212.041 5.06944 211.031 5.15377 210.024 5.24064L210.153 6.73657ZM216.22 6.24741C217.217 6.17261 218.218 6.10029 219.222 6.03047L219.117 4.53261C218.111 4.60262 217.107 4.67512 216.108 4.75012L216.22 6.24741ZM222.241 5.82878C223.251 5.76405 224.264 5.70186 225.281 5.6422L225.193 4.14329C224.174 4.2031 223.158 4.26546 222.145 4.33036L222.241 5.82878ZM228.305 5.47289C229.307 5.41951 230.311 5.36859 231.319 5.32014L231.247 3.82038C230.236 3.86895 229.229 3.92001 228.226 3.97354L228.305 5.47289ZM234.353 5.18226C235.367 5.13885 236.383 5.09794 237.404 5.05955L237.347 3.55913C236.324 3.59761 235.305 3.63862 234.289 3.68214L234.353 5.18226ZM240.409 4.95408C241.415 4.92136 242.423 4.89105 243.435 4.86321L243.394 3.3623C242.379 3.39021 241.368 3.42057 240.36 3.45339L240.409 4.95408ZM246.481 4.78707C246.99 4.77562 247.5 4.76479 248.011 4.75457L247.981 3.25338C247.469 3.26361 246.958 3.27449 246.447 3.28597L246.481 4.78707Z" fill="#D80027"/>
</svg>
