<svg width="22" height="22" viewBox="0 0 22 22" fill="none" xmlns="http://www.w3.org/2000/svg">
<path d="M1.83331 1.83337H3.42831C4.41831 1.83337 5.19748 2.68587 5.11498 3.66671L4.35415 12.7967C4.32444 13.1504 4.36853 13.5064 4.48361 13.8422C4.5987 14.178 4.78227 14.4862 5.02271 14.7473C5.26314 15.0084 5.55519 15.2168 5.88035 15.3591C6.20551 15.5014 6.5567 15.5747 6.91165 15.5742H16.6741C17.9941 15.5742 19.1491 14.4925 19.25 13.1817L19.745 6.30671C19.855 4.78504 18.7 3.54754 17.1691 3.54754H5.33498M8.24998 7.33337H19.25M14.8958 20.1667C15.1997 20.1667 15.4912 20.046 15.706 19.8311C15.9209 19.6162 16.0416 19.3248 16.0416 19.0209C16.0416 18.717 15.9209 18.4255 15.706 18.2106C15.4912 17.9958 15.1997 17.875 14.8958 17.875C14.5919 17.875 14.3005 17.9958 14.0856 18.2106C13.8707 18.4255 13.75 18.717 13.75 19.0209C13.75 19.3248 13.8707 19.6162 14.0856 19.8311C14.3005 20.046 14.5919 20.1667 14.8958 20.1667ZM7.56248 20.1667C7.86637 20.1667 8.15782 20.046 8.37271 19.8311C8.58759 19.6162 8.70831 19.3248 8.70831 19.0209C8.70831 18.717 8.58759 18.4255 8.37271 18.2106C8.15782 17.9958 7.86637 17.875 7.56248 17.875C7.25859 17.875 6.96714 17.9958 6.75225 18.2106C6.53737 18.4255 6.41665 18.717 6.41665 19.0209C6.41665 19.3248 6.53737 19.6162 6.75225 19.8311C6.96714 20.046 7.25859 20.1667 7.56248 20.1667Z" stroke="#94A3B8" stroke-width="1.5" stroke-miterlimit="10" stroke-linecap="round" stroke-linejoin="round"/>
</svg>
