<svg width="255" height="211" viewBox="0 0 255 211" fill="none" xmlns="http://www.w3.org/2000/svg">
<path d="M1.57165 0.0421326C0.904203 -0.135116 0.219442 0.262268 0.0421937 0.929715C-0.135055 1.59716 0.262329 2.28192 0.929776 2.45917L1.57165 0.0421326ZM241.662 204.317C241.662 208 244.648 210.986 248.331 210.986C252.014 210.986 255 208 255 204.317C255 200.634 252.014 197.648 248.331 197.648C244.648 197.648 241.662 200.634 241.662 204.317ZM0.929776 2.45917C34.7098 11.4299 87.6113 32.3313 136.407 65.852C185.213 99.379 229.775 145.435 247.131 204.668L249.531 203.965C231.949 143.96 186.873 97.4856 137.823 63.7907C88.7645 30.0895 35.5945 9.07731 1.57165 0.0421326L0.929776 2.45917Z" fill="#18A0FB"/>
</svg>
