<svg width="276" height="34" viewBox="0 0 276 34" fill="none" xmlns="http://www.w3.org/2000/svg">
<path d="M0 29C0 28.0681 0 27.6022 0.152241 27.2346C0.355229 26.7446 0.744577 26.3552 1.23463 26.1522C1.60218 26 2.06812 26 3 26C3.93188 26 4.39782 26 4.76537 26.1522C5.25542 26.3552 5.64477 26.7446 5.84776 27.2346C6 27.6022 6 28.0681 6 29V34H0V29Z" fill="#F1F5F9"/>
<path d="M8.4375 21C8.4375 20.0681 8.4375 19.6022 8.58974 19.2346C8.79273 18.7446 9.18208 18.3552 9.67213 18.1522C10.0397 18 10.5056 18 11.4375 18C12.3694 18 12.8353 18 13.2029 18.1522C13.6929 18.3552 14.0823 18.7446 14.2853 19.2346C14.4375 19.6022 14.4375 20.0681 14.4375 21V34H8.4375V21Z" fill="#F1F5F9"/>
<path d="M16.875 32C16.875 31.0681 16.875 30.6022 17.0272 30.2346C17.2302 29.7446 17.6196 29.3552 18.1096 29.1522C18.4772 29 18.9431 29 19.875 29C20.8069 29 21.2728 29 21.6404 29.1522C22.1304 29.3552 22.5198 29.7446 22.7228 30.2346C22.875 30.6022 22.875 31.0681 22.875 32V34H16.875V32Z" fill="#F1F5F9"/>
<path d="M25.3125 18C25.3125 17.0681 25.3125 16.6022 25.4647 16.2346C25.6677 15.7446 26.0571 15.3552 26.5471 15.1522C26.9147 15 27.3806 15 28.3125 15C29.2444 15 29.7103 15 30.0779 15.1522C30.5679 15.3552 30.9573 15.7446 31.1603 16.2346C31.3125 16.6022 31.3125 17.0681 31.3125 18V34H25.3125V18Z" fill="#F1F5F9"/>
<path d="M33.75 22C33.75 21.0681 33.75 20.6022 33.9022 20.2346C34.1052 19.7446 34.4946 19.3552 34.9846 19.1522C35.3522 19 35.8181 19 36.75 19C37.6819 19 38.1478 19 38.5154 19.1522C39.0054 19.3552 39.3948 19.7446 39.5978 20.2346C39.75 20.6022 39.75 21.0681 39.75 22V34H33.75V22Z" fill="#F1F5F9"/>
<path d="M42.1875 31C42.1875 30.0681 42.1875 29.6022 42.3397 29.2346C42.5427 28.7446 42.9321 28.3552 43.4221 28.1522C43.7897 28 44.2556 28 45.1875 28C46.1194 28 46.5853 28 46.9529 28.1522C47.4429 28.3552 47.8323 28.7446 48.0353 29.2346C48.1875 29.6022 48.1875 30.0681 48.1875 31V34H42.1875V31Z" fill="#F1F5F9"/>
<path d="M50.625 27C50.625 26.0681 50.625 25.6022 50.7772 25.2346C50.9802 24.7446 51.3696 24.3552 51.8596 24.1522C52.2272 24 52.6931 24 53.625 24C54.5569 24 55.0228 24 55.3904 24.1522C55.8804 24.3552 56.2698 24.7446 56.4728 25.2346C56.625 25.6022 56.625 26.0681 56.625 27V34H50.625V27Z" fill="#F1F5F9"/>
<path d="M59.0625 22C59.0625 21.0681 59.0625 20.6022 59.2147 20.2346C59.4177 19.7446 59.8071 19.3552 60.2971 19.1522C60.6647 19 61.1306 19 62.0625 19C62.9944 19 63.4603 19 63.8279 19.1522C64.3179 19.3552 64.7073 19.7446 64.9103 20.2346C65.0625 20.6022 65.0625 21.0681 65.0625 22V34H59.0625V22Z" fill="#F1F5F9"/>
<path d="M67.5 19C67.5 18.0681 67.5 17.6022 67.6522 17.2346C67.8552 16.7446 68.2446 16.3552 68.7346 16.1522C69.1022 16 69.5681 16 70.5 16C71.4319 16 71.8978 16 72.2654 16.1522C72.7554 16.3552 73.1448 16.7446 73.3478 17.2346C73.5 17.6022 73.5 18.0681 73.5 19V34H67.5V19Z" fill="#F1F5F9"/>
<path d="M75.9375 22C75.9375 21.0681 75.9375 20.6022 76.0897 20.2346C76.2927 19.7446 76.6821 19.3552 77.1721 19.1522C77.5397 19 78.0056 19 78.9375 19C79.8694 19 80.3353 19 80.7029 19.1522C81.1929 19.3552 81.5823 19.7446 81.7853 20.2346C81.9375 20.6022 81.9375 21.0681 81.9375 22V34H75.9375V22Z" fill="#F1F5F9"/>
<path d="M84.375 25C84.375 24.0681 84.375 23.6022 84.5272 23.2346C84.7302 22.7446 85.1196 22.3552 85.6096 22.1522C85.9772 22 86.4431 22 87.375 22C88.3069 22 88.7728 22 89.1404 22.1522C89.6304 22.3552 90.0198 22.7446 90.2228 23.2346C90.375 23.6022 90.375 24.0681 90.375 25V34H84.375V25Z" fill="#F1F5F9"/>
<path d="M92.8125 29C92.8125 28.0681 92.8125 27.6022 92.9647 27.2346C93.1677 26.7446 93.5571 26.3552 94.0471 26.1522C94.4147 26 94.8806 26 95.8125 26C96.7444 26 97.2103 26 97.5779 26.1522C98.0679 26.3552 98.4573 26.7446 98.6603 27.2346C98.8125 27.6022 98.8125 28.0681 98.8125 29V34H92.8125V29Z" fill="#F1F5F9"/>
<path d="M101.25 34C101.25 32.8954 102.145 32 103.25 32H105.25C106.355 32 107.25 32.8954 107.25 34H101.25Z" fill="#F1F5F9"/>
<path d="M109.688 22C109.688 21.0681 109.688 20.6022 109.84 20.2346C110.043 19.7446 110.432 19.3552 110.922 19.1522C111.29 19 111.756 19 112.688 19C113.619 19 114.085 19 114.453 19.1522C114.943 19.3552 115.332 19.7446 115.535 20.2346C115.688 20.6022 115.688 21.0681 115.688 22V34H109.688V22Z" fill="#F1F5F9"/>
<path d="M118.125 24C118.125 23.0681 118.125 22.6022 118.277 22.2346C118.48 21.7446 118.87 21.3552 119.36 21.1522C119.727 21 120.193 21 121.125 21C122.057 21 122.523 21 122.89 21.1522C123.38 21.3552 123.77 21.7446 123.973 22.2346C124.125 22.6022 124.125 23.0681 124.125 24V34H118.125V24Z" fill="#F1F5F9"/>
<path d="M126.562 16C126.562 15.0681 126.562 14.6022 126.715 14.2346C126.918 13.7446 127.307 13.3552 127.797 13.1522C128.165 13 128.631 13 129.562 13C130.494 13 130.96 13 131.328 13.1522C131.818 13.3552 132.207 13.7446 132.41 14.2346C132.562 14.6022 132.562 15.0681 132.562 16V34H126.562V16Z" fill="#F1F5F9"/>
<path d="M135 14C135 13.0681 135 12.6022 135.152 12.2346C135.355 11.7446 135.745 11.3552 136.235 11.1522C136.602 11 137.068 11 138 11C138.932 11 139.398 11 139.765 11.1522C140.255 11.3552 140.645 11.7446 140.848 12.2346C141 12.6022 141 13.0681 141 14V34H135V14Z" fill="#F1F5F9"/>
<path d="M143.438 9C143.438 8.06812 143.438 7.60218 143.59 7.23463C143.793 6.74458 144.182 6.35523 144.672 6.15224C145.04 6 145.506 6 146.438 6C147.369 6 147.835 6 148.203 6.15224C148.693 6.35523 149.082 6.74458 149.285 7.23463C149.438 7.60218 149.438 8.06812 149.438 9V34H143.438V9Z" fill="#F1F5F9"/>
<path d="M151.875 19C151.875 18.0681 151.875 17.6022 152.027 17.2346C152.23 16.7446 152.62 16.3552 153.11 16.1522C153.477 16 153.943 16 154.875 16C155.807 16 156.273 16 156.64 16.1522C157.13 16.3552 157.52 16.7446 157.723 17.2346C157.875 17.6022 157.875 18.0681 157.875 19V34H151.875V19Z" fill="#F1F5F9"/>
<path d="M160.312 22C160.312 21.0681 160.312 20.6022 160.465 20.2346C160.668 19.7446 161.057 19.3552 161.547 19.1522C161.915 19 162.381 19 163.312 19C164.244 19 164.71 19 165.078 19.1522C165.568 19.3552 165.957 19.7446 166.16 20.2346C166.312 20.6022 166.312 21.0681 166.312 22V34H160.312V22Z" fill="#F1F5F9"/>
<path d="M168.75 29C168.75 28.0681 168.75 27.6022 168.902 27.2346C169.105 26.7446 169.495 26.3552 169.985 26.1522C170.352 26 170.818 26 171.75 26C172.682 26 173.148 26 173.515 26.1522C174.005 26.3552 174.395 26.7446 174.598 27.2346C174.75 27.6022 174.75 28.0681 174.75 29V34H168.75V29Z" fill="#F1F5F9"/>
<path d="M177.188 25C177.188 24.0681 177.188 23.6022 177.34 23.2346C177.543 22.7446 177.932 22.3552 178.422 22.1522C178.79 22 179.256 22 180.188 22C181.119 22 181.585 22 181.953 22.1522C182.443 22.3552 182.832 22.7446 183.035 23.2346C183.188 23.6022 183.188 24.0681 183.188 25V34H177.188V25Z" fill="#F1F5F9"/>
<path d="M185.625 22C185.625 21.0681 185.625 20.6022 185.777 20.2346C185.98 19.7446 186.37 19.3552 186.86 19.1522C187.227 19 187.693 19 188.625 19C189.557 19 190.023 19 190.39 19.1522C190.88 19.3552 191.27 19.7446 191.473 20.2346C191.625 20.6022 191.625 21.0681 191.625 22V34H185.625V22Z" fill="#F1F5F9"/>
<path d="M194.062 19C194.062 18.0681 194.062 17.6022 194.215 17.2346C194.418 16.7446 194.807 16.3552 195.297 16.1522C195.665 16 196.131 16 197.062 16C197.994 16 198.46 16 198.828 16.1522C199.318 16.3552 199.707 16.7446 199.91 17.2346C200.062 17.6022 200.062 18.0681 200.062 19V34H194.062V19Z" fill="#F1F5F9"/>
<path d="M202.5 9C202.5 8.06812 202.5 7.60218 202.652 7.23463C202.855 6.74458 203.245 6.35523 203.735 6.15224C204.102 6 204.568 6 205.5 6C206.432 6 206.898 6 207.265 6.15224C207.755 6.35523 208.145 6.74458 208.348 7.23463C208.5 7.60218 208.5 8.06812 208.5 9V34H202.5V9Z" fill="#F1F5F9"/>
<path d="M210.938 3C210.938 2.06812 210.938 1.60218 211.09 1.23463C211.293 0.744577 211.682 0.355229 212.172 0.152241C212.54 0 213.006 0 213.938 0C214.869 0 215.335 0 215.703 0.152241C216.193 0.355229 216.582 0.744577 216.785 1.23463C216.938 1.60218 216.938 2.06812 216.938 3V34H210.938V3Z" fill="#F1F5F9"/>
<path d="M219.375 17C219.375 16.0681 219.375 15.6022 219.527 15.2346C219.73 14.7446 220.12 14.3552 220.61 14.1522C220.977 14 221.443 14 222.375 14C223.307 14 223.773 14 224.14 14.1522C224.63 14.3552 225.02 14.7446 225.223 15.2346C225.375 15.6022 225.375 16.0681 225.375 17V34H219.375V17Z" fill="#F1F5F9"/>
<path d="M227.812 25C227.812 24.0681 227.812 23.6022 227.965 23.2346C228.168 22.7446 228.557 22.3552 229.047 22.1522C229.415 22 229.881 22 230.812 22C231.744 22 232.21 22 232.578 22.1522C233.068 22.3552 233.457 22.7446 233.66 23.2346C233.812 23.6022 233.812 24.0681 233.812 25V34H227.812V25Z" fill="#F1F5F9"/>
<path d="M236.25 32C236.25 31.0681 236.25 30.6022 236.402 30.2346C236.605 29.7446 236.995 29.3552 237.485 29.1522C237.852 29 238.318 29 239.25 29C240.182 29 240.648 29 241.015 29.1522C241.505 29.3552 241.895 29.7446 242.098 30.2346C242.25 30.6022 242.25 31.0681 242.25 32V34H236.25V32Z" fill="#F1F5F9"/>
<path d="M244.688 30C244.688 29.0681 244.688 28.6022 244.84 28.2346C245.043 27.7446 245.432 27.3552 245.922 27.1522C246.29 27 246.756 27 247.688 27C248.619 27 249.085 27 249.453 27.1522C249.943 27.3552 250.332 27.7446 250.535 28.2346C250.688 28.6022 250.688 29.0681 250.688 30V34H244.688V30Z" fill="#F1F5F9"/>
<path d="M253.125 29C253.125 28.0681 253.125 27.6022 253.277 27.2346C253.48 26.7446 253.87 26.3552 254.36 26.1522C254.727 26 255.193 26 256.125 26C257.057 26 257.523 26 257.89 26.1522C258.38 26.3552 258.77 26.7446 258.973 27.2346C259.125 27.6022 259.125 28.0681 259.125 29V34H253.125V29Z" fill="#F1F5F9"/>
<path d="M261.562 27C261.562 26.0681 261.562 25.6022 261.715 25.2346C261.918 24.7446 262.307 24.3552 262.797 24.1522C263.165 24 263.631 24 264.562 24C265.494 24 265.96 24 266.328 24.1522C266.818 24.3552 267.207 24.7446 267.41 25.2346C267.562 25.6022 267.562 26.0681 267.562 27V34H261.562V27Z" fill="#F1F5F9"/>
<path d="M270 29C270 28.0681 270 27.6022 270.152 27.2346C270.355 26.7446 270.745 26.3552 271.235 26.1522C271.602 26 272.068 26 273 26C273.932 26 274.398 26 274.765 26.1522C275.255 26.3552 275.645 26.7446 275.848 27.2346C276 27.6022 276 28.0681 276 29V34H270V29Z" fill="#F1F5F9"/>
</svg>
