<svg width="21" height="21" viewBox="0 0 21 21" fill="none" xmlns="http://www.w3.org/2000/svg">
<path d="M10.5 1.3125C5.42637 1.3125 1.3125 5.42637 1.3125 10.5C1.3125 15.5736 5.42637 19.6875 10.5 19.6875C15.5736 19.6875 19.6875 15.5736 19.6875 10.5C19.6875 5.42637 15.5736 1.3125 10.5 1.3125ZM10.5 18.1289C6.2877 18.1289 2.87109 14.7123 2.87109 10.5C2.87109 6.2877 6.2877 2.87109 10.5 2.87109C14.7123 2.87109 18.1289 6.2877 18.1289 10.5C18.1289 14.7123 14.7123 18.1289 10.5 18.1289Z" fill="#94A3B8"/>
<path d="M12.7887 6.49482C12.1734 5.95547 11.3613 5.66016 10.5 5.66016C9.63867 5.66016 8.82656 5.95752 8.21133 6.49482C7.57148 7.05469 7.21875 7.80732 7.21875 8.61328V8.76914C7.21875 8.85938 7.29258 8.9332 7.38281 8.9332H8.36719C8.45742 8.9332 8.53125 8.85938 8.53125 8.76914V8.61328C8.53125 7.70889 9.41514 6.97266 10.5 6.97266C11.5849 6.97266 12.4687 7.70889 12.4687 8.61328C12.4687 9.25107 12.0176 9.83555 11.3183 10.1042C10.8835 10.2703 10.5144 10.5615 10.2498 10.943C9.98115 11.3326 9.8417 11.8002 9.8417 12.2739V12.7148C9.8417 12.8051 9.91553 12.8789 10.0058 12.8789H10.9901C11.0804 12.8789 11.1542 12.8051 11.1542 12.7148V12.2493C11.1553 12.0502 11.2163 11.8561 11.3293 11.6922C11.4424 11.5283 11.6022 11.4023 11.7879 11.3306C12.9979 10.865 13.7792 9.79863 13.7792 8.61328C13.7812 7.80732 13.4285 7.05469 12.7887 6.49482ZM9.67969 15.0117C9.67969 15.2293 9.76611 15.4379 9.91995 15.5918C10.0738 15.7456 10.2824 15.832 10.5 15.832C10.7176 15.832 10.9262 15.7456 11.08 15.5918C11.2339 15.4379 11.3203 15.2293 11.3203 15.0117C11.3203 14.7942 11.2339 14.5855 11.08 14.4317C10.9262 14.2778 10.7176 14.1914 10.5 14.1914C10.2824 14.1914 10.0738 14.2778 9.91995 14.4317C9.76611 14.5855 9.67969 14.7942 9.67969 15.0117Z" fill="#94A3B8"/>
</svg>
