<svg width="22" height="23" viewBox="0 0 22 23" fill="none" xmlns="http://www.w3.org/2000/svg">
<path d="M2.0074 2.0074H3.6083C4.60196 2.0074 5.38401 2.86305 5.30121 3.84751L4.53756 13.0113C4.50774 13.3663 4.55199 13.7236 4.6675 14.0607C4.78301 14.3977 4.96727 14.707 5.20859 14.9691C5.44992 15.2312 5.74305 15.4403 6.06941 15.5832C6.39577 15.726 6.74825 15.7995 7.10452 15.7991H16.9031C18.228 15.7991 19.3873 14.7134 19.4885 13.3977L19.9853 6.49728C20.0957 4.96998 18.9365 3.72791 17.4 3.72791H5.52202M8.4478 7.52775H19.4885M15.1182 20.4086C15.4232 20.4086 15.7158 20.2874 15.9314 20.0717C16.1471 19.856 16.2683 19.5635 16.2683 19.2585C16.2683 18.9535 16.1471 18.6609 15.9314 18.4453C15.7158 18.2296 15.4232 18.1084 15.1182 18.1084C14.8132 18.1084 14.5207 18.2296 14.305 18.4453C14.0893 18.6609 13.9681 18.9535 13.9681 19.2585C13.9681 19.5635 14.0893 19.856 14.305 20.0717C14.5207 20.2874 14.8132 20.4086 15.1182 20.4086ZM7.75776 20.4086C8.06278 20.4086 8.3553 20.2874 8.57098 20.0717C8.78666 19.856 8.90783 19.5635 8.90783 19.2585C8.90783 18.9535 8.78666 18.6609 8.57098 18.4453C8.3553 18.2296 8.06278 18.1084 7.75776 18.1084C7.45274 18.1084 7.16022 18.2296 6.94454 18.4453C6.72886 18.6609 6.60769 18.9535 6.60769 19.2585C6.60769 19.5635 6.72886 19.856 6.94454 20.0717C7.16022 20.2874 7.45274 20.4086 7.75776 20.4086Z" stroke="white" stroke-width="1.5" stroke-miterlimit="10" stroke-linecap="round" stroke-linejoin="round"/>
</svg>
