<svg width="24" height="22" viewBox="0 0 24 22" fill="none" xmlns="http://www.w3.org/2000/svg">
<path d="M6.49182 10.9172C6.46753 11.3423 6.61216 11.7596 6.89392 12.0776C7.17568 12.3956 7.57153 12.5881 7.99448 12.613H8.08164C8.39314 12.6126 8.69773 12.5206 8.9578 12.3483C9.21787 12.176 9.42205 11.931 9.54514 11.6434C9.66822 11.3559 9.70483 11.0384 9.65044 10.7301C9.59605 10.4219 9.45304 10.1364 9.23907 9.90895C9.02509 9.68146 8.74951 9.52191 8.44635 9.44999C8.14318 9.37807 7.82569 9.39693 7.53307 9.50425C7.24045 9.61156 6.9855 9.80263 6.79968 10.0539C6.61387 10.3051 6.50533 10.6055 6.48746 10.9181L6.49182 10.9172Z" fill="white"/>
<path d="M0.543911 10.5108C0.442221 10.505 0.341127 10.5297 0.253403 10.5817C0.16568 10.6337 0.0952644 10.7107 0.0510564 10.8029C0.0068484 10.8951 -0.00916812 10.9984 0.00503095 11.0998C0.01923 11.2011 0.0630074 11.296 0.130831 11.3723C0.198654 11.4487 0.287478 11.5031 0.38608 11.5288C0.484681 11.5544 0.588632 11.5501 0.684798 11.5164C0.780963 11.4827 0.865025 11.4211 0.926362 11.3394C0.987698 11.2577 1.02355 11.1595 1.0294 11.0573C1.0334 10.9894 1.02401 10.9213 1.00175 10.857C0.979487 10.7927 0.944804 10.7334 0.899691 10.6826C0.854578 10.6319 0.799923 10.5905 0.738867 10.561C0.677811 10.5315 0.611557 10.5144 0.543911 10.5108Z" fill="white"/>
<path d="M6.39071 1.61412C6.48128 1.56738 6.55606 1.49476 6.60565 1.4054C6.65524 1.31604 6.67741 1.21394 6.66938 1.11194C6.66135 1.00995 6.62348 0.912616 6.56052 0.832206C6.49757 0.751797 6.41235 0.6919 6.31559 0.660056C6.21883 0.628212 6.11487 0.625845 6.01678 0.653252C5.91868 0.680659 5.83085 0.736615 5.76434 0.814077C5.69782 0.891539 5.6556 0.987043 5.64298 1.08857C5.63036 1.19009 5.64791 1.2931 5.69342 1.38463C5.72401 1.44589 5.76636 1.50046 5.81804 1.5452C5.86972 1.58993 5.92969 1.62395 5.99451 1.64528C6.05933 1.66661 6.12771 1.67484 6.19571 1.66949C6.26371 1.66414 6.32998 1.64532 6.39071 1.61412Z" fill="white"/>
<path d="M8.0093 4.45032C8.14996 4.37902 8.26642 4.26741 8.34397 4.1296C8.42151 3.99179 8.45666 3.83397 8.44496 3.67609C8.43326 3.51821 8.37525 3.36736 8.27826 3.24261C8.18126 3.11786 8.04963 3.02481 7.90002 2.97523C7.75041 2.92564 7.58953 2.92175 7.43771 2.96403C7.2859 3.00632 7.14997 3.09289 7.0471 3.2128C6.94424 3.33271 6.87906 3.48058 6.85981 3.63771C6.84056 3.79484 6.86811 3.95417 6.93896 4.09558C6.98603 4.18952 7.05106 4.27323 7.13034 4.3419C7.20961 4.41058 7.30158 4.46289 7.40098 4.49583C7.50038 4.52878 7.60527 4.54171 7.70965 4.5339C7.81403 4.5261 7.91585 4.49769 8.0093 4.45032Z" fill="white"/>
<path d="M2.56257 6.40098C2.67107 6.47268 2.79828 6.51042 2.92813 6.50944C3.05797 6.50846 3.18461 6.46879 3.29202 6.39547C3.39942 6.32214 3.48277 6.21844 3.53152 6.09749C3.58026 5.97655 3.59221 5.84379 3.56586 5.71602C3.5395 5.58825 3.47602 5.4712 3.38345 5.3797C3.29088 5.28819 3.17338 5.22633 3.04582 5.20195C2.91826 5.17757 2.78637 5.19176 2.66683 5.24273C2.5473 5.2937 2.4455 5.37915 2.3743 5.48828C2.27896 5.63443 2.24523 5.81264 2.28053 5.98377C2.31583 6.1549 2.41727 6.30495 2.56257 6.40098Z" fill="white"/>
<path d="M3.53268 10.2191C3.3754 10.2102 3.21902 10.2483 3.08331 10.3287C2.9476 10.4091 2.83864 10.5281 2.77022 10.6707C2.7018 10.8132 2.67697 10.973 2.69889 11.1298C2.72081 11.2865 2.78848 11.4333 2.89336 11.5514C2.99823 11.6695 3.1356 11.7537 3.2881 11.7934C3.4406 11.8331 3.60138 11.8265 3.75012 11.7743C3.89887 11.7222 4.02889 11.6269 4.12377 11.5006C4.21864 11.3742 4.2741 11.2224 4.28314 11.0643C4.29504 10.8523 4.22269 10.6441 4.08197 10.4856C3.94126 10.3272 3.74369 10.2313 3.53268 10.2191Z" fill="white"/>
<path d="M2.64973 15.6016C2.5339 15.6604 2.43803 15.7524 2.37423 15.866C2.31043 15.9796 2.28157 16.1096 2.2913 16.2397C2.30103 16.3697 2.34891 16.494 2.42889 16.5967C2.50887 16.6994 2.61735 16.776 2.74063 16.8167C2.86392 16.8575 2.99646 16.8606 3.1215 16.8257C3.24655 16.7908 3.35848 16.7194 3.44316 16.6206C3.52784 16.5217 3.58146 16.3999 3.59724 16.2704C3.61301 16.141 3.59025 16.0097 3.53181 15.8932C3.49298 15.8159 3.43935 15.7469 3.374 15.6904C3.30864 15.6338 3.23284 15.5908 3.15092 15.5637C3.069 15.5366 2.98258 15.526 2.89658 15.5325C2.81058 15.539 2.7267 15.5625 2.64973 15.6016Z" fill="white"/>
<path d="M5.74659 8.56448C5.90172 8.66665 6.08352 8.7203 6.26899 8.71864C6.45446 8.71699 6.63528 8.6601 6.78858 8.55518C6.94189 8.45026 7.06079 8.30201 7.13026 8.12918C7.19972 7.95636 7.21663 7.76671 7.17885 7.58422C7.14107 7.40174 7.0503 7.23461 6.918 7.10396C6.78571 6.97332 6.61783 6.88503 6.43561 6.85026C6.25338 6.81549 6.06499 6.8358 5.89425 6.90862C5.72351 6.98144 5.5781 7.1035 5.47639 7.25937C5.40872 7.36285 5.36203 7.47873 5.33899 7.60037C5.31595 7.72201 5.31701 7.84702 5.34211 7.96825C5.3672 8.08948 5.41585 8.20454 5.48526 8.30685C5.55466 8.40916 5.64347 8.49671 5.74659 8.56448Z" fill="white"/>
<path d="M15.5714 4.38726C15.7035 4.47384 15.8582 4.51913 16.0159 4.51739C16.1736 4.51566 16.3272 4.46698 16.4574 4.37751C16.5876 4.28804 16.6884 4.1618 16.7472 4.01474C16.806 3.86768 16.8201 3.70641 16.7877 3.55131C16.7553 3.39621 16.6778 3.25424 16.5652 3.14336C16.4525 3.03247 16.3096 2.95765 16.1546 2.92834C15.9997 2.89903 15.8395 2.91656 15.6944 2.9787C15.5494 3.04085 15.4259 3.14482 15.3396 3.27747C15.2821 3.36559 15.2426 3.46423 15.2231 3.56775C15.2037 3.67127 15.2048 3.77763 15.2263 3.88073C15.2478 3.98382 15.2894 4.08164 15.3486 4.16856C15.4079 4.25548 15.4836 4.3298 15.5714 4.38726Z" fill="white"/>
<path d="M17.2066 1.55981C17.292 1.61605 17.392 1.64558 17.4941 1.64465C17.5962 1.64373 17.6957 1.6124 17.7801 1.55463C17.8644 1.49686 17.9298 1.41524 17.968 1.3201C18.0062 1.22496 18.0154 1.12057 17.9946 1.02015C17.9737 0.919731 17.9237 0.827786 17.8508 0.755949C17.7779 0.684113 17.6855 0.635614 17.5852 0.616588C17.4848 0.597563 17.3812 0.608867 17.2873 0.649069C17.1933 0.689271 17.1134 0.756565 17.0575 0.842437C16.9827 0.957455 16.9564 1.09761 16.9844 1.23211C17.0123 1.36662 17.0922 1.48448 17.2066 1.55981Z" fill="white"/>
<path d="M15.697 9.39134C15.4878 9.37927 15.2783 9.40871 15.0804 9.478C14.8826 9.54728 14.7002 9.65505 14.5438 9.79515C14.2279 10.0781 14.0368 10.4756 14.0126 10.9001C13.9883 11.3246 14.1328 11.7415 14.4144 12.0589C14.6959 12.3764 15.0915 12.5684 15.5139 12.5928C15.5444 12.5928 15.5758 12.5928 15.6063 12.5928C15.9141 12.5927 16.2152 12.503 16.4734 12.3348C16.7316 12.1665 16.9359 11.9268 17.0615 11.6445C17.1872 11.3621 17.2289 11.0493 17.1817 10.7437C17.1344 10.4381 17.0002 10.1528 16.7952 9.92215C16.6564 9.76483 16.4878 9.63688 16.2992 9.54575C16.1106 9.45461 15.9059 9.40212 15.697 9.39134Z" fill="white"/>
<path d="M8.53314 8.45324C8.66556 8.71909 8.8692 8.9425 9.12113 9.09834C9.37306 9.25417 9.66328 9.33624 9.9591 9.33529C10.2318 9.33535 10.5001 9.26516 10.7381 9.13144C10.9762 8.99771 11.1762 8.8049 11.319 8.5714C11.4619 8.33791 11.5428 8.07153 11.554 7.79768C11.5653 7.52383 11.5065 7.25164 11.3833 7.00711C11.25 6.74247 11.046 6.52037 10.7941 6.36567C10.5423 6.21097 10.2525 6.12978 9.95736 6.1312C9.68546 6.13166 9.41819 6.20193 9.18089 6.33534C8.9436 6.46874 8.74416 6.66086 8.60149 6.89347C8.45882 7.12608 8.37766 7.39145 8.3657 7.66443C8.35373 7.93741 8.41137 8.20893 8.53314 8.45324Z" fill="white"/>
<path d="M21.0408 6.39923C21.1567 6.34047 21.2526 6.24853 21.3165 6.13501C21.3803 6.02149 21.4093 5.89149 21.3997 5.76144C21.39 5.63139 21.3422 5.50713 21.2624 5.40437C21.1825 5.3016 21.0741 5.22493 20.9508 5.18406C20.8276 5.14319 20.6951 5.13995 20.57 5.17474C20.445 5.20954 20.333 5.28081 20.2482 5.37954C20.1634 5.47828 20.1097 5.60006 20.0938 5.72948C20.0778 5.8589 20.1005 5.99016 20.1588 6.10667C20.2372 6.26294 20.3742 6.38153 20.5395 6.43638C20.7049 6.49124 20.8852 6.47787 21.0408 6.39923Z" fill="white"/>
<path d="M16.9957 6.90988C16.83 6.99373 16.6928 7.12506 16.6014 7.28727C16.51 7.44948 16.4685 7.63528 16.4822 7.82118C16.4959 8.00708 16.5641 8.18472 16.6783 8.33165C16.7924 8.47857 16.9474 8.58818 17.1235 8.64662C17.2997 8.70505 17.4891 8.70968 17.6679 8.65992C17.8466 8.61016 18.0067 8.50825 18.1278 8.36708C18.2489 8.2259 18.3257 8.0518 18.3484 7.86679C18.371 7.68178 18.3386 7.49418 18.2551 7.32769C18.1998 7.21707 18.1234 7.1185 18.0301 7.03761C17.9368 6.95673 17.8286 6.89512 17.7116 6.85631C17.5946 6.8175 17.4712 6.80226 17.3483 6.81145C17.2255 6.82064 17.1056 6.85409 16.9957 6.90988Z" fill="white"/>
<path d="M11.7851 1.31806C11.9148 1.32548 12.0437 1.29409 12.1555 1.22788C12.2674 1.16167 12.3572 1.0636 12.4136 0.946087C12.47 0.82857 12.4905 0.696883 12.4724 0.567684C12.4543 0.438484 12.3985 0.317578 12.312 0.220259C12.2255 0.12294 12.1123 0.0535802 11.9866 0.0209544C11.8609 -0.0116715 11.7284 -0.00609791 11.6058 0.0369701C11.4833 0.080038 11.3762 0.158665 11.2981 0.262906C11.22 0.367146 11.1744 0.492317 11.1672 0.622583C11.1574 0.797144 11.217 0.968455 11.3329 1.09887C11.4488 1.22928 11.6114 1.30812 11.7851 1.31806Z" fill="white"/>
<path d="M11.7782 5.46901C11.9633 5.47944 12.1474 5.43448 12.3071 5.33981C12.4668 5.24514 12.595 5.10501 12.6755 4.93714C12.756 4.76926 12.7852 4.58117 12.7594 4.39664C12.7335 4.21211 12.6538 4.03942 12.5303 3.90039C12.4069 3.76137 12.2451 3.66225 12.0656 3.61557C11.8861 3.56889 11.6968 3.57674 11.5217 3.63812C11.3466 3.69951 11.1936 3.81168 11.0819 3.96045C10.9703 4.10922 10.905 4.28793 10.8943 4.47397C10.8803 4.72368 10.9655 4.96878 11.1313 5.15537C11.297 5.34196 11.5297 5.45478 11.7782 5.46901Z" fill="white"/>
<path d="M6.69665 15.09C6.86229 15.0061 6.99945 14.8747 7.09078 14.7124C7.1821 14.5502 7.22349 14.3643 7.2097 14.1784C7.19592 13.9925 7.12758 13.8149 7.01333 13.668C6.89908 13.5211 6.74406 13.4116 6.56787 13.3533C6.39167 13.295 6.20222 13.2905 6.02348 13.3403C5.84474 13.3902 5.68473 13.4923 5.5637 13.6335C5.44266 13.7748 5.36604 13.949 5.34351 14.134C5.32099 14.3191 5.35358 14.5067 5.43716 14.6731C5.5492 14.8962 5.74482 15.0654 5.981 15.1436C6.21719 15.2218 6.4746 15.2025 6.69665 15.09Z" fill="white"/>
<path d="M12.3839 6.84419C12.1894 7.1425 12.0995 7.49747 12.1283 7.85294C12.1571 8.20841 12.3031 8.54406 12.5431 8.80677C12.7831 9.06949 13.1035 9.24426 13.4534 9.30343C13.8034 9.36261 14.163 9.30279 14.4754 9.13346C14.7877 8.96413 15.035 8.69496 15.1779 8.36854C15.3209 8.04212 15.3515 7.67711 15.2648 7.33126C15.1782 6.98541 14.9792 6.67849 14.6994 6.45907C14.4196 6.23965 14.075 6.12027 13.7201 6.11981C13.4551 6.11963 13.1942 6.18575 12.9609 6.31221C12.7276 6.43867 12.5293 6.62149 12.3839 6.84419Z" fill="white"/>
<path d="M15.1574 13.5475C15.0296 13.2929 14.8365 13.0771 14.5981 12.9225C14.3596 12.7678 14.0844 12.6799 13.8008 12.6678C13.5173 12.6557 13.2356 12.7199 12.985 12.8537C12.7343 12.9875 12.5237 13.1861 12.3749 13.4289C12.2261 13.6718 12.1445 13.9502 12.1385 14.2353C12.1325 14.5205 12.2023 14.8021 12.3407 15.0511C12.4791 15.3001 12.6812 15.5074 12.9259 15.6518C13.1707 15.7961 13.4494 15.8722 13.7332 15.8722C13.9829 15.8705 14.2287 15.8105 14.4514 15.697C14.8281 15.5054 15.1138 15.1717 15.2462 14.7688C15.3785 14.366 15.3466 13.9268 15.1574 13.5475Z" fill="white"/>
<path d="M17.9449 13.4354C17.7898 13.3331 17.608 13.2793 17.4225 13.2809C17.2371 13.2824 17.0562 13.3391 16.9028 13.444C16.7494 13.5488 16.6304 13.6969 16.5608 13.8697C16.4912 14.0425 16.4742 14.2322 16.5118 14.4147C16.5495 14.5972 16.6402 14.7644 16.7724 14.8951C16.9046 15.0259 17.0725 15.1143 17.2547 15.1492C17.4369 15.184 17.6253 15.1638 17.7961 15.0911C17.9669 15.0184 18.1124 14.8964 18.2142 14.7405C18.3502 14.5314 18.3983 14.2767 18.3478 14.0321C18.2973 13.7875 18.1524 13.5729 17.9449 13.4354Z" fill="white"/>
<path d="M20.999 11.0275C21.0079 10.8695 20.9699 10.7123 20.8899 10.576C20.81 10.4396 20.6915 10.3301 20.5496 10.2613C20.4077 10.1926 20.2488 10.1676 20.0928 10.1896C19.9368 10.2117 19.7908 10.2797 19.6732 10.3851C19.5557 10.4905 19.4719 10.6285 19.4324 10.7818C19.3929 10.935 19.3995 11.0966 19.4514 11.2461C19.5032 11.3955 19.598 11.5262 19.7238 11.6215C19.8496 11.7169 20.0006 11.7726 20.1579 11.7817C20.3689 11.7937 20.576 11.721 20.7337 11.5795C20.8914 11.4381 20.9869 11.2396 20.999 11.0275Z" fill="white"/>
<path d="M23.2059 10.4573C23.104 10.4514 23.0027 10.476 22.9147 10.528C22.8267 10.58 22.7561 10.657 22.7117 10.7494C22.6673 10.8417 22.6511 10.9452 22.6652 11.0468C22.6794 11.1484 22.7231 11.2434 22.791 11.32C22.8589 11.3966 22.9479 11.4512 23.0467 11.4769C23.1455 11.5027 23.2497 11.4984 23.346 11.4647C23.4424 11.4309 23.5267 11.3692 23.5881 11.2874C23.6496 11.2055 23.6856 11.1072 23.6914 11.0048C23.699 10.8675 23.6522 10.7329 23.5612 10.6303C23.4702 10.5276 23.3425 10.4655 23.2059 10.4573Z" fill="white"/>
<path d="M21.128 15.5989C21.0194 15.5275 20.8922 15.49 20.7624 15.4912C20.6326 15.4923 20.5061 15.5322 20.3989 15.6056C20.2916 15.679 20.2084 15.7828 20.1598 15.9037C20.1112 16.0246 20.0994 16.1573 20.1258 16.285C20.1523 16.4127 20.2158 16.5297 20.3083 16.6211C20.4009 16.7125 20.5184 16.7743 20.6459 16.7987C20.7734 16.823 20.9052 16.8088 21.0247 16.7579C21.1442 16.7069 21.2459 16.6216 21.3171 16.5125C21.3644 16.4401 21.3971 16.3589 21.4132 16.2738C21.4293 16.1887 21.4285 16.1012 21.4109 16.0163C21.3934 15.9315 21.3594 15.851 21.3108 15.7793C21.2622 15.7077 21.2001 15.6464 21.128 15.5989Z" fill="white"/>
<path d="M6.48484 20.4401C6.39953 20.3838 6.29953 20.3543 6.19749 20.3551C6.09545 20.356 5.99595 20.3872 5.91158 20.4449C5.8272 20.5025 5.76173 20.5841 5.72345 20.6791C5.68517 20.7742 5.67579 20.8785 5.69651 20.9789C5.71722 21.0793 5.7671 21.1713 5.83983 21.2432C5.91256 21.3152 6.00488 21.3638 6.10511 21.383C6.20535 21.4022 6.309 21.3911 6.40297 21.3511C6.49693 21.3111 6.57699 21.2441 6.63302 21.1584C6.67024 21.1014 6.69593 21.0377 6.70862 20.9708C6.72132 20.9039 6.72077 20.8351 6.70701 20.7684C6.69325 20.7017 6.66655 20.6384 6.62843 20.582C6.59031 20.5257 6.54152 20.4775 6.48484 20.4401Z" fill="white"/>
<path d="M17.2999 20.3858C17.2087 20.432 17.1332 20.5043 17.083 20.5935C17.0327 20.6828 17.01 20.785 17.0175 20.8873C17.0251 20.9896 17.0627 21.0873 17.1255 21.1681C17.1884 21.249 17.2737 21.3092 17.3706 21.3413C17.4675 21.3734 17.5718 21.3759 17.6701 21.3485C17.7684 21.3211 17.8565 21.2649 17.9231 21.1872C17.9897 21.1095 18.0319 21.0137 18.0443 20.9119C18.0567 20.8101 18.0388 20.7069 17.9928 20.6153C17.9624 20.5544 17.9203 20.5002 17.869 20.4557C17.8176 20.4112 17.7581 20.3773 17.6937 20.356C17.6293 20.3347 17.5614 20.3264 17.4938 20.3315C17.4262 20.3366 17.3603 20.355 17.2999 20.3858Z" fill="white"/>
<path d="M11.3066 15.1531C11.5012 14.8548 11.5911 14.4997 11.5623 14.1442C11.5334 13.7887 11.3874 13.4531 11.1473 13.1904C10.9072 12.9276 10.5868 12.7529 10.2368 12.6938C9.88677 12.6347 9.52712 12.6946 9.21479 12.864C8.90246 13.0335 8.65529 13.3027 8.5124 13.6292C8.36951 13.9557 8.33906 14.3208 8.42589 14.6667C8.51271 15.0125 8.71184 15.3194 8.99175 15.5387C9.27167 15.758 9.61637 15.8772 9.97131 15.8775C10.2364 15.8784 10.4974 15.8126 10.7307 15.686C10.9639 15.5595 11.1619 15.3763 11.3066 15.1531Z" fill="white"/>
<path d="M8.11912 17.6135C7.9873 17.5269 7.83286 17.4814 7.67534 17.4829C7.51782 17.4845 7.36428 17.5329 7.23413 17.6221C7.10399 17.7113 7.00308 17.8372 6.94416 17.9841C6.88524 18.1309 6.87095 18.292 6.90311 18.4469C6.93527 18.6019 7.01243 18.7438 7.12483 18.8547C7.23723 18.9656 7.37983 19.0406 7.5346 19.0701C7.68937 19.0996 7.84937 19.0823 7.99437 19.0204C8.13937 18.9585 8.26286 18.8548 8.34923 18.7224C8.46492 18.5447 8.50567 18.3281 8.46252 18.1201C8.41937 17.9122 8.29587 17.73 8.11912 17.6135Z" fill="white"/>
<path d="M11.8383 20.6819C11.7087 20.6745 11.5799 20.7058 11.468 20.772C11.3562 20.8382 11.2664 20.9362 11.21 21.0537C11.1535 21.1711 11.133 21.3028 11.1511 21.4319C11.1691 21.5611 11.2248 21.682 11.3112 21.7794C11.3976 21.8767 11.5108 21.9461 11.6364 21.9788C11.7621 22.0115 11.8945 22.0061 12.0171 21.9632C12.1396 21.9202 12.2468 21.8417 12.325 21.7376C12.4031 21.6335 12.4488 21.5084 12.4563 21.3782C12.4612 21.2917 12.4492 21.2051 12.4208 21.1232C12.3924 21.0414 12.3483 20.966 12.2909 20.9014C12.2335 20.8367 12.164 20.784 12.0863 20.7464C12.0087 20.7087 11.9244 20.6868 11.8383 20.6819Z" fill="white"/>
<path d="M11.8453 16.5318C11.66 16.5205 11.4755 16.5647 11.3152 16.6588C11.1549 16.7529 11.026 16.8928 10.9449 17.0605C10.8637 17.2283 10.834 17.4166 10.8593 17.6014C10.8847 17.7862 10.9641 17.9593 11.0875 18.0987C11.2108 18.2382 11.3726 18.3377 11.5522 18.3846C11.7319 18.4316 11.9214 18.424 12.0967 18.3626C12.2721 18.3013 12.4253 18.189 12.5371 18.0401C12.6489 17.8911 12.7142 17.7122 12.7247 17.5259C12.739 17.277 12.6545 17.0325 12.4896 16.8461C12.3247 16.6597 12.093 16.5467 11.8453 16.5318Z" fill="white"/>
<path d="M15.6813 17.5496C15.5405 17.6214 15.4241 17.7335 15.3468 17.8717C15.2695 18.01 15.2348 18.1682 15.247 18.3263C15.2592 18.4844 15.3178 18.6354 15.4154 18.76C15.513 18.8846 15.6452 18.9773 15.7953 19.0264C15.9454 19.0755 16.1066 19.0787 16.2585 19.0357C16.4104 18.9927 16.5461 18.9054 16.6486 18.7848C16.7511 18.6642 16.8157 18.5157 16.8342 18.3582C16.8527 18.2007 16.8242 18.0412 16.7525 17.9C16.7051 17.8062 16.6398 17.7227 16.5603 17.6544C16.4808 17.586 16.3887 17.5341 16.2892 17.5015C16.1897 17.469 16.0848 17.4565 15.9805 17.4647C15.8761 17.473 15.7745 17.5018 15.6813 17.5496Z" fill="white"/>
</svg>
