<svg width="24" height="24" viewBox="0 0 24 24" fill="none" xmlns="http://www.w3.org/2000/svg">
<path d="M19.97 9.99994H3.97V17.9999C3.97 20.9999 4.97 21.9999 7.97 21.9999H15.97C18.97 21.9999 19.97 20.9999 19.97 17.9999V9.99994ZM21.5 6.99994V7.99994C21.5 9.09994 20.97 9.99994 19.5 9.99994H4.5C2.97 9.99994 2.5 9.09994 2.5 7.99994V6.99994C2.5 5.89994 2.97 4.99994 4.5 4.99994H19.5C20.97 4.99994 21.5 5.89994 21.5 6.99994ZM11.64 4.99994H6.12C5.95557 4.8216 5.8668 4.58639 5.8724 4.34388C5.87799 4.10137 5.97752 3.87051 6.15 3.69994L7.57 2.27994C7.74972 2.10223 7.99226 2.00256 8.245 2.00256C8.49774 2.00256 8.74028 2.10223 8.92 2.27994L11.64 4.99994ZM17.87 4.99994H12.35L15.07 2.27994C15.2497 2.10223 15.4923 2.00256 15.745 2.00256C15.9977 2.00256 16.2403 2.10223 16.42 2.27994L17.84 3.69994C18.2 4.05994 18.21 4.62994 17.87 4.99994Z" stroke="#0153FF" stroke-width="1.5" stroke-miterlimit="10" stroke-linecap="round" stroke-linejoin="round"/>
<path d="M8.94 10V15.14C8.94 15.94 9.82 16.41 10.49 15.98L11.43 15.36C11.5933 15.2525 11.7845 15.1952 11.98 15.1952C12.1755 15.1952 12.3667 15.2525 12.53 15.36L13.42 15.96C13.5702 16.0601 13.7447 16.1176 13.925 16.1263C14.1053 16.135 14.2845 16.0945 14.4437 16.0093C14.6028 15.9241 14.7358 15.7973 14.8285 15.6425C14.9212 15.4876 14.9701 15.3105 14.97 15.13V10H8.94Z" stroke="#0153FF" stroke-width="1.5" stroke-miterlimit="10" stroke-linecap="round" stroke-linejoin="round"/>
</svg>
