<svg width="24" height="24" viewBox="0 0 24 24" fill="none" xmlns="http://www.w3.org/2000/svg">
<path d="M12.66 2.51801L12.63 2.58801L9.73002 9.31801H6.88002C6.20002 9.31801 5.55002 9.45801 4.96002 9.70801L6.71002 5.52801L6.75002 5.42801L6.82002 5.26801C6.84002 5.20801 6.86002 5.14801 6.89002 5.09801C8.20002 2.06801 9.68002 1.37801 12.66 2.51801Z" stroke="#0153FF" stroke-width="1.5" stroke-linecap="round" stroke-linejoin="round"/>
<path d="M18.05 9.51794C17.6 9.37794 17.12 9.31794 16.64 9.31794H9.72998L12.63 2.58794L12.66 2.51794C12.81 2.56794 12.95 2.63794 13.1 2.69794L15.31 3.62794C16.54 4.13794 17.4 4.66794 17.92 5.30794C18.02 5.42794 18.1 5.53794 18.17 5.66794C18.26 5.80794 18.33 5.94794 18.37 6.09794C18.41 6.18794 18.44 6.27794 18.46 6.35794C18.73 7.19794 18.57 8.22794 18.05 9.51794Z" stroke="#0153FF" stroke-width="1.5" stroke-linecap="round" stroke-linejoin="round"/>
<path d="M21.522 14.198V16.148C21.522 16.348 21.512 16.548 21.502 16.748C21.312 20.238 19.362 21.998 15.662 21.998H7.86202C7.62202 21.998 7.38202 21.978 7.15202 21.948C3.97202 21.738 2.27202 20.038 2.06202 16.858C2.03202 16.628 2.01202 16.388 2.01202 16.148V14.198C2.01202 12.188 3.23202 10.458 4.97202 9.70799C5.57202 9.45799 6.21202 9.31799 6.89202 9.31799H16.652C17.142 9.31799 17.622 9.38799 18.062 9.51799C20.052 10.128 21.522 11.988 21.522 14.198Z" stroke="#0153FF" stroke-width="1.5" stroke-linecap="round" stroke-linejoin="round"/>
<path d="M6.71 5.52795L4.96 9.70795C4.08211 10.0856 3.334 10.712 2.808 11.5099C2.28199 12.3078 2.0011 13.2423 2 14.198V11.268C2 8.42795 4.02 6.05795 6.71 5.52795ZM21.519 11.268V14.198C21.519 11.998 20.059 10.128 18.059 9.52795C18.579 8.22795 18.729 7.20795 18.479 6.35795C18.459 6.26795 18.429 6.17795 18.389 6.09795C20.249 7.05795 21.519 9.02795 21.519 11.268Z" stroke="#0153FF" stroke-width="1.5" stroke-linecap="round" stroke-linejoin="round"/>
</svg>
