<svg width="24" height="24" viewBox="0 0 24 24" fill="none" xmlns="http://www.w3.org/2000/svg">
<path d="M9.094 21.006C8.4652 20.9719 7.87348 20.6977 7.441 20.24C6.9236 19.7422 6.46188 19.1896 6.064 18.592C5.44248 17.702 4.95119 16.7278 4.605 15.699C4.21321 14.5921 4.00709 13.4281 3.995 12.254C3.96456 11.102 4.24986 9.96354 4.82 8.962C5.23758 8.2401 5.83319 7.63725 6.55 7.211C7.25889 6.78656 8.06782 6.5581 8.894 6.549C9.51682 6.58585 10.1289 6.7282 10.704 6.97C11.163 7.172 11.645 7.314 12.14 7.392C12.686 7.27762 13.2196 7.11015 13.733 6.892C14.3407 6.65473 14.9841 6.52186 15.636 6.499C15.723 6.499 15.809 6.499 15.892 6.509C17.322 6.55 18.652 7.252 19.492 8.409C18.8364 8.75963 18.2909 9.28519 17.9161 9.92726C17.5414 10.5693 17.352 11.3027 17.369 12.046C17.3625 12.6143 17.4765 13.1776 17.7035 13.6987C17.9305 14.2197 18.2653 14.6868 18.686 15.069C19.069 15.4338 19.5148 15.7261 20.002 15.932C19.902 16.232 19.787 16.522 19.665 16.814C19.388 17.4593 19.0463 18.0747 18.645 18.651C18.2656 19.2283 17.8239 19.7621 17.328 20.243C16.8756 20.6919 16.2726 20.9567 15.636 20.986C15.0964 20.9621 14.5662 20.8355 14.074 20.613C13.5432 20.3818 12.9728 20.2551 12.394 20.24C11.7989 20.2517 11.2116 20.3777 10.664 20.611C10.191 20.8244 9.68575 20.9572 9.169 21.004L9.094 21.006ZM12.244 6.499C12.169 6.499 12.094 6.499 12.019 6.49C12.0032 6.37097 11.9949 6.25107 11.994 6.131C12.0267 5.13213 12.4171 4.17824 13.094 3.443C13.4726 3.02046 13.9315 2.67746 14.444 2.434C14.9216 2.18815 15.4435 2.04026 15.979 1.999C15.994 2.13 15.994 2.258 15.994 2.38C15.9799 3.36317 15.6105 4.30802 14.954 5.04C14.6361 5.46622 14.2288 5.8177 13.7606 6.06975C13.2925 6.32179 12.7748 6.46831 12.244 6.499Z" fill="#0F172A"/>
</svg>
