<svg width="224" height="212" viewBox="0 0 224 212" fill="none" xmlns="http://www.w3.org/2000/svg">
<path d="M1.61579 0.0546966C0.955248 -0.146881 0.256365 0.225181 0.0547881 0.88572C-0.146789 1.54626 0.225273 2.24514 0.885811 2.44672L1.61579 0.0546966ZM210.662 205.326C210.662 209.01 213.648 211.995 217.331 211.995C221.014 211.995 224 209.01 224 205.326C224 201.643 221.014 198.657 217.331 198.657C213.648 198.657 210.662 201.643 210.662 205.326ZM0.885811 2.44672C30.397 11.4527 76.637 32.4448 119.294 66.1189C161.95 99.7918 200.932 146.072 216.119 205.635L218.543 205.017C203.176 144.749 163.766 98.0391 120.844 64.1559C77.9235 30.274 31.4004 9.14411 1.61579 0.0546966L0.885811 2.44672Z" fill="#1DCE5C"/>
</svg>
