<svg width="25" height="24" viewBox="0 0 25 24" fill="none" xmlns="http://www.w3.org/2000/svg">
<path d="M4.37498 8.00008H3.37498M21.375 8.00008H20.375M12.375 3.00008V5.00008M10.875 5.00008H13.875M6.37498 15.0001H9.37498M15.375 15.0001H18.375M15.885 2.83008H8.86498C6.37498 2.83008 5.82498 4.07008 5.50498 5.59008L4.37498 11.0001H20.375L19.245 5.59008C18.925 4.07008 18.375 2.83008 15.885 2.83008ZM22.365 19.8201C22.475 20.9901 21.535 22.0001 20.335 22.0001H18.455C17.375 22.0001 17.225 21.5401 17.035 20.9701L16.835 20.3701C16.555 19.5501 16.375 19.0001 14.935 19.0001H9.81498C8.37498 19.0001 8.16498 19.6201 7.91498 20.3701L7.71498 20.9701C7.52498 21.5401 7.37498 22.0001 6.29498 22.0001H4.41498C3.21498 22.0001 2.27498 20.9901 2.38498 19.8201L2.94498 13.7301C3.08498 12.2301 3.37498 11.0001 5.99498 11.0001H18.755C21.375 11.0001 21.665 12.2301 21.805 13.7301L22.365 19.8201Z" stroke="black" stroke-width="1.5" stroke-linecap="round" stroke-linejoin="round"/>
</svg>
