<svg width="20" height="16" viewBox="0 0 20 16" fill="none" xmlns="http://www.w3.org/2000/svg">
<g clip-path="url(#clip0_52_2844)">
<path d="M16.9407 1.33443C15.6293 0.702852 14.242 0.254086 12.8153 0C12.6376 0.330693 12.43 0.775477 12.2868 1.12933C10.7487 0.891256 9.22466 0.891256 7.71478 1.12933C7.57168 0.775558 7.35937 0.330693 7.18003 0C5.75201 0.254203 4.36348 0.704112 3.05149 1.33773C0.440713 5.39875 -0.267049 9.35879 0.0867931 13.2628C1.81843 14.5938 3.49656 15.4025 5.14642 15.9316C5.55645 15.3512 5.91891 14.7367 6.23005 14.0945C5.63768 13.8623 5.06661 13.5763 4.52364 13.2396C4.66653 13.1306 4.80605 13.017 4.942 12.899C8.23218 14.4831 11.8072 14.4831 15.0581 12.899C15.1947 13.0162 15.3341 13.1298 15.4764 13.2396C14.9326 13.5771 14.3604 13.8638 13.7669 14.0962C14.0798 14.741 14.4416 15.3561 14.8505 15.9332C16.5019 15.4041 18.1816 14.5955 19.9133 13.2628C20.3285 8.73713 19.204 4.81335 16.9407 1.33435V1.33443ZM6.67833 10.8619C5.69062 10.8619 4.88061 9.91276 4.88061 8.75698C4.88061 7.60121 5.67335 6.65045 6.67833 6.65045C7.68338 6.65045 8.49331 7.59952 8.47604 8.75698C8.47761 9.91276 7.68338 10.8619 6.67833 10.8619ZM13.3217 10.8619C12.334 10.8619 11.5241 9.91276 11.5241 8.75698C11.5241 7.60121 12.3168 6.65045 13.3217 6.65045C14.3268 6.65045 15.1367 7.59952 15.1194 8.75698C15.1194 9.91276 14.3268 10.8619 13.3217 10.8619Z" fill="#5865F2"/>
</g>
<defs>
<clipPath id="clip0_52_2844">
<rect width="20" height="16" fill="white"/>
</clipPath>
</defs>
</svg>
