<svg width="19" height="28" viewBox="0 0 19 28" fill="none" xmlns="http://www.w3.org/2000/svg">
<path d="M15.2251 15.1205V16.3749H4.27379V8.29404C4.27379 5.18098 6.78122 2.56913 9.84371 2.62121C12.4702 2.66713 14.6524 4.5997 15.1286 7.14043C15.2422 7.75028 15.7802 8.18316 16.3898 8.18316C17.2034 8.18316 17.8114 7.42828 17.6559 6.61739C16.925 2.80153 13.5765 -0.0757598 9.59291 0.00152056C5.18383 0.0866409 1.6936 3.83978 1.6936 8.32092V17.6864C1.6936 18.4099 2.27071 18.9962 2.98287 18.9962H16.5127C17.2249 18.9962 17.802 18.4099 17.802 17.6864V15.1216H15.2251V15.1205Z" fill="#0F172A"/>
<path d="M17.3122 28H1.68779C0.756252 28 0 27.2322 0 26.2858V13.5905C0 12.6441 0.756252 11.8764 1.68779 11.8764H17.3122C18.2437 11.8764 19 12.6441 19 13.5905V26.2858C19 27.2322 18.2454 28 17.3122 28Z" fill="#0153FF"/>
<path d="M10.8904 19.8186C11.3968 19.3219 11.6926 18.5589 11.5999 17.7227C11.4804 16.6453 10.701 15.7813 9.74132 15.6623C8.46232 15.5024 7.38077 16.6224 7.38077 18.0267C7.38077 18.7412 7.66295 19.3825 8.1074 19.8186C8.11379 19.8248 8.11619 19.8361 8.11379 19.845L7.17333 22.7152C6.98747 23.2815 7.36078 23.8823 7.89756 23.8823H11.1027C11.6394 23.8823 12.0127 23.2815 11.8265 22.7152L10.886 19.845C10.8816 19.8361 10.884 19.8262 10.8904 19.8186Z" fill="white"/>
</svg>
