<svg width="24" height="24" viewBox="0 0 24 24" fill="none" xmlns="http://www.w3.org/2000/svg">
<path d="M13.75 9.99995C14.0152 9.99995 14.2696 9.89459 14.4571 9.70706C14.6446 9.51952 14.75 9.26517 14.75 8.99995C14.75 8.73473 14.6446 8.48038 14.4571 8.29284C14.2696 8.10531 14.0152 7.99995 13.75 7.99995C13.4848 7.99995 13.2304 8.10531 13.0429 8.29284C12.8554 8.48038 12.75 8.73473 12.75 8.99995C12.75 9.26517 12.8554 9.51952 13.0429 9.70706C13.2304 9.89459 13.4848 9.99995 13.75 9.99995ZM10.25 9.99995C10.5152 9.99995 10.7696 9.89459 10.9571 9.70706C11.1446 9.51952 11.25 9.26517 11.25 8.99995C11.25 8.73473 11.1446 8.48038 10.9571 8.29284C10.7696 8.10531 10.5152 7.99995 10.25 7.99995C9.98478 7.99995 9.73043 8.10531 9.54289 8.29284C9.35535 8.48038 9.25 8.73473 9.25 8.99995C9.25 9.26517 9.35535 9.51952 9.54289 9.70706C9.73043 9.89459 9.98478 9.99995 10.25 9.99995ZM15.5 13C15.7652 13 16.0196 12.8946 16.2071 12.7071C16.3946 12.5195 16.5 12.2652 16.5 12C16.5 11.7347 16.3946 11.4804 16.2071 11.2928C16.0196 11.1053 15.7652 11 15.5 11C15.2348 11 14.9804 11.1053 14.7929 11.2928C14.6054 11.4804 14.5 11.7347 14.5 12C14.5 12.2652 14.6054 12.5195 14.7929 12.7071C14.9804 12.8946 15.2348 13 15.5 13ZM17.15 9.74995C17.3489 9.74995 17.5397 9.67093 17.6803 9.53028C17.821 9.38963 17.9 9.19886 17.9 8.99995C17.9 8.80104 17.821 8.61027 17.6803 8.46962C17.5397 8.32897 17.3489 8.24995 17.15 8.24995C16.9511 8.24995 16.7603 8.32897 16.6197 8.46962C16.479 8.61027 16.4 8.80104 16.4 8.99995C16.4 9.19886 16.479 9.38963 16.6197 9.53028C16.7603 9.67093 16.9511 9.74995 17.15 9.74995ZM17.15 15.75C17.3489 15.75 17.5397 15.6709 17.6803 15.5303C17.821 15.3896 17.9 15.1989 17.9 15C17.9 14.801 17.821 14.6103 17.6803 14.4696C17.5397 14.329 17.3489 14.25 17.15 14.25C16.9511 14.25 16.7603 14.329 16.6197 14.4696C16.479 14.6103 16.4 14.801 16.4 15C16.4 15.1989 16.479 15.3896 16.6197 15.5303C16.7603 15.6709 16.9511 15.75 17.15 15.75ZM19.75 12.75C19.9489 12.75 20.1397 12.6709 20.2803 12.5303C20.421 12.3896 20.5 12.1989 20.5 12C20.5 11.801 20.421 11.6103 20.2803 11.4696C20.1397 11.329 19.9489 11.25 19.75 11.25C19.5511 11.25 19.3603 11.329 19.2197 11.4696C19.079 11.6103 19 11.801 19 12C19 12.1989 19.079 12.3896 19.2197 12.5303C19.3603 12.6709 19.5511 12.75 19.75 12.75ZM6.8 9.74995C6.99891 9.74995 7.18967 9.67093 7.33033 9.53028C7.47098 9.38963 7.55 9.19886 7.55 8.99995C7.55 8.80104 7.47098 8.61027 7.33033 8.46962C7.18967 8.32897 6.99891 8.24995 6.8 8.24995C6.60108 8.24995 6.41032 8.32897 6.26967 8.46962C6.12901 8.61027 6.05 8.80104 6.05 8.99995C6.05 9.19886 6.12901 9.38963 6.26967 9.53028C6.41032 9.67093 6.60108 9.74995 6.8 9.74995ZM6.8 15.75C6.99891 15.75 7.18967 15.6709 7.33033 15.5303C7.47098 15.3896 7.55 15.1989 7.55 15C7.55 14.801 7.47098 14.6103 7.33033 14.4696C7.18967 14.329 6.99891 14.25 6.8 14.25C6.60108 14.25 6.41032 14.329 6.26967 14.4696C6.12901 14.6103 6.05 14.801 6.05 15C6.05 15.1989 6.12901 15.3896 6.26967 15.5303C6.41032 15.6709 6.60108 15.75 6.8 15.75ZM4.2 12.75C4.39891 12.75 4.58967 12.6709 4.73033 12.5303C4.87098 12.3896 4.95 12.1989 4.95 12C4.95 11.801 4.87098 11.6103 4.73033 11.4696C4.58967 11.329 4.39891 11.25 4.2 11.25C4.00108 11.25 3.81032 11.329 3.66967 11.4696C3.52901 11.6103 3.45 11.801 3.45 12C3.45 12.1989 3.52901 12.3896 3.66967 12.5303C3.81032 12.6709 4.00108 12.75 4.2 12.75ZM15.9 5.94995C16.0989 5.94995 16.2897 5.87093 16.4303 5.73028C16.571 5.58963 16.65 5.39886 16.65 5.19995C16.65 5.00104 16.571 4.81027 16.4303 4.66962C16.2897 4.52897 16.0989 4.44995 15.9 4.44995C15.7011 4.44995 15.5103 4.52897 15.3697 4.66962C15.229 4.81027 15.15 5.00104 15.15 5.19995C15.15 5.39886 15.229 5.58963 15.3697 5.73028C15.5103 5.87093 15.7011 5.94995 15.9 5.94995ZM8.1 5.94995C8.29891 5.94995 8.48967 5.87093 8.63033 5.73028C8.77098 5.58963 8.85 5.39886 8.85 5.19995C8.85 5.00104 8.77098 4.81027 8.63033 4.66962C8.48967 4.52897 8.29891 4.44995 8.1 4.44995C7.90109 4.44995 7.71032 4.52897 7.56967 4.66962C7.42901 4.81027 7.35 5.00104 7.35 5.19995C7.35 5.39886 7.42901 5.58963 7.56967 5.73028C7.71032 5.87093 7.90109 5.94995 8.1 5.94995ZM12.05 6.74995C12.2489 6.74995 12.4397 6.67093 12.5803 6.53028C12.721 6.38963 12.8 6.19886 12.8 5.99995C12.8 5.80104 12.721 5.61027 12.5803 5.46962C12.4397 5.32897 12.2489 5.24995 12.05 5.24995C11.8511 5.24995 11.6603 5.32897 11.5197 5.46962C11.379 5.61027 11.3 5.80104 11.3 5.99995C11.3 6.19886 11.379 6.38963 11.5197 6.53028C11.6603 6.67093 11.8511 6.74995 12.05 6.74995ZM15.9 19.75C16.0989 19.75 16.2897 19.6709 16.4303 19.5303C16.571 19.3896 16.65 19.1989 16.65 19C16.65 18.801 16.571 18.6103 16.4303 18.4696C16.2897 18.329 16.0989 18.25 15.9 18.25C15.7011 18.25 15.5103 18.329 15.3697 18.4696C15.229 18.6103 15.15 18.801 15.15 19C15.15 19.1989 15.229 19.3896 15.3697 19.5303C15.5103 19.6709 15.7011 19.75 15.9 19.75ZM8.1 19.75C8.29891 19.75 8.48967 19.6709 8.63033 19.5303C8.77098 19.3896 8.85 19.1989 8.85 19C8.85 18.801 8.77098 18.6103 8.63033 18.4696C8.48967 18.329 8.29891 18.25 8.1 18.25C7.90109 18.25 7.71032 18.329 7.56967 18.4696C7.42901 18.6103 7.35 18.801 7.35 19C7.35 19.1989 7.42901 19.3896 7.56967 19.5303C7.71032 19.6709 7.90109 19.75 8.1 19.75ZM12.05 18.95C12.2489 18.95 12.4397 18.8709 12.5803 18.7303C12.721 18.5896 12.8 18.3989 12.8 18.2C12.8 18.001 12.721 17.8103 12.5803 17.6696C12.4397 17.529 12.2489 17.45 12.05 17.45C11.8511 17.45 11.6603 17.529 11.5197 17.6696C11.379 17.8103 11.3 18.001 11.3 18.2C11.3 18.3989 11.379 18.5896 11.5197 18.7303C11.6603 18.8709 11.8511 18.95 12.05 18.95ZM8.5 13C8.76521 13 9.01957 12.8946 9.2071 12.7071C9.39464 12.5195 9.5 12.2652 9.5 12C9.5 11.7347 9.39464 11.4804 9.2071 11.2928C9.01957 11.1053 8.76521 11 8.5 11C8.23478 11 7.98043 11.1053 7.79289 11.2928C7.60535 11.4804 7.5 11.7347 7.5 12C7.5 12.2652 7.60535 12.5195 7.79289 12.7071C7.98043 12.8946 8.23478 13 8.5 13ZM10.25 16C10.5152 16 10.7696 15.8946 10.9571 15.7071C11.1446 15.5195 11.25 15.2652 11.25 15C11.25 14.7347 11.1446 14.4804 10.9571 14.2928C10.7696 14.1053 10.5152 14 10.25 14C9.98478 14 9.73043 14.1053 9.54289 14.2928C9.35535 14.4804 9.25 14.7347 9.25 15C9.25 15.2652 9.35535 15.5195 9.54289 15.7071C9.73043 15.8946 9.98478 16 10.25 16ZM13.75 16C14.0152 16 14.2696 15.8946 14.4571 15.7071C14.6446 15.5195 14.75 15.2652 14.75 15C14.75 14.7347 14.6446 14.4804 14.4571 14.2928C14.2696 14.1053 14.0152 14 13.75 14C13.4848 14 13.2304 14.1053 13.0429 14.2928C12.8554 14.4804 12.75 14.7347 12.75 15C12.75 15.2652 12.8554 15.5195 13.0429 15.7071C13.2304 15.8946 13.4848 16 13.75 16Z" stroke="#94A3B8" stroke-miterlimit="10"/>
</svg>
