<svg width="40" height="40" viewBox="0 0 40 40" fill="none" xmlns="http://www.w3.org/2000/svg">
<path fill-rule="evenodd" clip-rule="evenodd" d="M20 40C9 40 0 31.0002 0 19.9004C0.1 8.90064 9 -0.0991726 20.1 0.00082534C31.1 0.100823 40 9.00064 40 20.2004C39.9 31.1002 31 40 20 40Z" fill="#E42D04"/>
<path fill-rule="evenodd" clip-rule="evenodd" d="M20.3896 34.6668C21.8412 34.6668 25.565 34.0124 28.847 31.3947C32.6209 28.3846 32.9765 26.7059 33.2058 25.6235C33.2258 25.5293 33.2447 25.4396 33.265 25.3539C33.3033 25.1917 33.3256 24.9714 33.3333 24.7097C32.5406 24.5813 31.4295 24.5078 30.1329 24.6617C28.0122 24.9134 26.346 26.3607 25.778 27.0529C25.4624 25.4798 23.9224 22.3335 20.287 22.3335C16.6515 22.3335 14.6908 25.4798 14.1648 27.0529C13.8282 26.4655 12.5743 25.1651 10.2517 24.6617C8.81562 24.3505 7.56291 24.5043 6.66664 24.7662C6.7374 25.936 7.12191 27.1836 8.14527 28.5002C9.90618 30.7655 12.6384 32.1643 13.8574 32.7884C13.9929 32.8577 14.1096 32.9175 14.2043 32.9678C15.151 33.4713 17.7387 34.6668 20.3896 34.6668Z" fill="white"/>
<path fill-rule="evenodd" clip-rule="evenodd" d="M33.3303 24.6636C32.5381 24.5356 31.4276 24.4623 30.1318 24.6158C28.0123 24.8667 26.3471 26.3099 25.7794 27.0001C25.464 25.4315 23.9249 22.2942 20.2916 22.2942C16.6583 22.2942 14.6986 25.4315 14.173 27.0001C13.8366 26.4144 12.5834 25.1177 10.2621 24.6158C8.82687 24.3054 7.5749 24.4588 6.67915 24.7201C6.61466 23.6563 6.81091 22.6572 7.02151 21.7295C7.37474 20.1734 8.26204 18.1112 8.66154 17.2746C8.30409 16.4171 7.47567 13.9867 7.02151 11.1256C6.56734 8.2644 7.3369 6.33603 7.77844 5.72949C8.49333 5.91773 10.2007 6.50753 11.3108 7.36087C12.421 8.2142 14.1283 10.1007 14.8432 10.9373C15.7683 10.6864 18.1485 10.1844 20.268 10.1844C22.3874 10.1844 24.4311 10.6864 25.1881 10.9373C25.8188 10.1844 27.3706 8.41498 28.5312 7.36087C29.6918 6.30675 31.5799 5.79224 32.379 5.66675C32.5891 5.93864 33.035 6.73341 33.1359 7.73734C33.2621 8.99224 32.8836 11.6275 32.379 13.3844C31.9753 14.7899 31.4537 16.438 31.2436 17.0864C31.3487 17.3164 31.7103 18.0652 32.3159 19.2197C32.958 20.444 33.3731 23.2034 33.3303 24.6636Z" fill="#FFAA35"/>
<path d="M22.9791 30.2475C22.8291 30.4482 22.6666 30.8329 22.6041 31.0002V30.9374L22.4166 29.4321C22.0625 29.4739 21.1416 29.5576 20.2916 29.5576C19.4416 29.5576 18.4375 29.4739 18.0416 29.4321L17.9791 30.9374C17.9375 30.8747 17.8291 30.6991 17.7291 30.4984C17.6041 30.2475 17.1666 29.8712 17.1666 29.683C17.1666 29.5325 16.9583 29.2022 16.8541 29.0558L16.6666 28.8049H17.7916L18.0416 28.9931C18.25 28.9721 18.7791 28.9554 19.2291 29.0558C19.6791 29.1561 19.9583 28.7631 20.0416 28.554V27.5504C19.8541 27.425 19.3916 27.1365 19.0416 26.9859C18.6041 26.7978 18.1666 26.0451 18.2916 25.2924C18.4166 24.5398 18.7916 24.2889 19.0416 24.3516C19.2916 24.4143 20.9166 24.2889 21.1666 24.3516C21.4166 24.4143 21.8541 24.5398 22.0416 24.8534C22.2291 25.167 22.1041 26.4214 21.7291 26.8605C21.4291 27.2117 20.8541 27.4668 20.6041 27.5504V28.554C20.6041 28.6794 21.0416 28.9931 21.1041 29.0558C21.1666 29.1185 22.1041 29.0558 22.2916 29.0558C22.4416 29.0558 22.5625 28.9303 22.6041 28.8676H23.6666V29.1185C23.6666 29.2439 23.4791 29.8084 23.4166 29.8712C23.3541 29.9339 23.1666 29.9966 22.9791 30.2475Z" fill="black"/>
<path d="M20.9682 29.8334L20.3333 30.3334L19.8254 29.8334L19.3809 30.0556L19 29.6667H21.6666L21.2857 30.1112L20.9682 29.8334Z" fill="black"/>
<path d="M14.1351 19.5769C13.3912 19.2692 12.5854 19.0641 12.2755 19C12.1928 19.0427 12.0275 19.1795 12.0275 19.3846C12.0275 19.641 11.9655 19.8974 12.0275 20.4103C12.0895 20.9231 12.5854 21.2436 13.4532 21.6282C14.3211 22.0128 15.8087 22.3333 16.8625 22.3333C17.9163 22.3333 16.9245 21.2436 16.5526 20.9872C16.1807 20.7308 15.0649 19.9615 14.1351 19.5769Z" fill="black"/>
<path d="M15.1531 17.8758C14.5972 17.9752 13.8265 18.0001 13.5107 18.0001C13.1948 17.9587 12.5252 17.764 12.3736 17.3166C12.1841 16.7575 12.6895 16.1362 13.3212 15.8255C13.9529 15.5149 14.7741 15.6391 15.2794 16.3847C15.7848 17.1303 15.8479 17.7516 15.1531 17.8758Z" fill="white"/>
<path d="M26.5315 19.2437C27.2754 18.936 28.0812 18.7309 28.3911 18.6667C28.4738 18.7094 28.6391 18.8462 28.6391 19.0514C28.6391 19.3078 28.7011 19.5642 28.6391 20.077C28.5771 20.5898 28.0812 20.9103 27.2134 21.295C26.3455 21.6796 24.8579 22.0001 23.8041 22.0001C22.7503 22.0001 23.7421 20.9103 24.114 20.6539C24.4859 20.3975 25.6017 19.6283 26.5315 19.2437Z" fill="black"/>
<path d="M24.5135 17.8758C25.0694 17.9752 25.8401 18.0001 26.1559 18.0001C26.4718 17.9587 27.1414 17.764 27.293 17.3166C27.4825 16.7575 26.9771 16.1362 26.3454 15.8255C25.7137 15.5149 24.8925 15.6391 24.3872 16.3847C23.8818 17.1303 23.8187 17.7516 24.5135 17.8758Z" fill="white"/>
<path d="M10.8097 13.225C10.3555 13.7211 9.48484 14.8374 9.10631 15.3335C8.85395 14.796 8.29876 13.3614 8.09687 11.9226C7.89499 10.4839 8.05482 8.26373 8.15996 7.3335C8.43335 7.35417 9.23248 7.58156 10.2419 8.32574C11.2513 9.06993 12.7234 10.4549 13.3333 11.0544C12.6814 11.5712 11.264 12.7288 10.8097 13.225Z" fill="#FF8C30"/>
<path fill-rule="evenodd" clip-rule="evenodd" d="M7.99997 8.5148C8.99212 8.92883 10.2981 9.56172 10.8454 10.1337C11.4006 10.714 11.889 11.4821 12.179 12.0002C12.6143 11.6392 13.0469 11.2925 13.3333 11.0672C12.7167 10.4656 11.2282 9.07587 10.2075 8.32914C9.18683 7.58241 8.3788 7.35424 8.10237 7.3335C8.06936 7.62325 8.03104 8.03775 7.99997 8.5148Z" fill="#FF9A32"/>
<path d="M28.8569 13.225C29.3111 13.7211 30.1818 14.8374 30.5603 15.3335C30.8127 14.796 31.3678 13.3614 31.5697 11.9226C31.7716 10.4839 31.6118 8.26373 31.5066 7.3335C31.2332 7.35417 30.4341 7.58156 29.4247 8.32574C28.4153 9.06993 26.9431 10.4549 26.3333 11.0544C26.9853 11.5712 28.4026 12.7288 28.8569 13.225Z" fill="#FF8C30"/>
<path fill-rule="evenodd" clip-rule="evenodd" d="M31.6666 8.5148C30.6744 8.92883 29.3685 9.56172 28.8212 10.1337C28.2659 10.714 27.7775 11.4821 27.4877 12.0002C27.0524 11.6392 26.6197 11.2925 26.3333 11.0672C26.9499 10.4656 28.4384 9.07587 29.4591 8.32914C30.4797 7.58241 31.2877 7.35424 31.5642 7.3335C31.5972 7.62325 31.6355 8.03775 31.6666 8.5148Z" fill="#FF9A32"/>
</svg>
