<svg width="51" height="48" viewBox="0 0 51 48" fill="none" xmlns="http://www.w3.org/2000/svg">
<path d="M50.778 45.4326L44.4356 35.2925C44.4265 35.279 44.4265 35.2593 44.4336 35.2458C46.1696 31.9253 47.1652 28.143 47.1835 24.1221C47.2488 10.9883 36.7703 0.148916 23.8612 0.00156822C10.6909 -0.149931 -0.0558815 10.6947 0.000218647 24.1055C0.0532588 37.3025 10.7347 48.062 23.7071 47.9997C28.9112 47.9769 33.7205 46.2347 37.6149 43.3022C37.6261 43.2929 37.6424 43.2898 37.6567 43.295L49.143 47.5079C50.3853 47.9645 51.4849 46.5636 50.778 45.4326Z" fill="#1DCE5C"/>
<path d="M20.5748 25.2457C20.5186 24.1686 21.254 23.2122 22.2774 23.058C25.6684 22.5487 27.2382 21.0719 27.2382 18.8879V18.8098C27.2382 16.6369 25.6381 15.123 22.9584 15.123C21.1997 15.123 19.6727 15.7336 18.2633 16.8739C17.4316 17.5486 16.2523 17.4762 15.5311 16.675L15.4883 16.6286C14.6664 15.7169 14.7565 14.2717 15.6791 13.4724C17.5921 11.8191 19.9651 10.7754 23.0681 10.7754C28.2793 10.7754 31.7764 13.8024 31.7764 18.6527V18.7308C31.7764 23.6091 28.4416 25.8219 24.3241 26.5635C24.3063 26.5663 24.2938 26.5812 24.292 26.5998L24.1093 28.1518C24.0032 29.0422 23.2776 29.7113 22.4174 29.7113C21.5571 29.7113 20.8315 29.0422 20.7254 28.1518L20.5748 25.2457ZM22.3255 31.4204C23.7019 31.4204 24.8188 32.584 24.8188 34.0189V34.1351C24.8188 35.571 23.7019 36.7346 22.3255 36.7346C20.9492 36.7346 19.8331 35.571 19.8331 34.1351V34.0189C19.8313 32.584 20.9474 31.4204 22.3255 31.4204Z" fill="white"/>
</svg>
