<svg width="97" height="40" viewBox="0 0 97 40" fill="none" xmlns="http://www.w3.org/2000/svg">
<line x1="0.5" y1="19.25" x2="96.5" y2="19.25" stroke="#E2E8F0" stroke-linecap="round" stroke-dasharray="4 4"/>
<path d="M4 26.6111C6.76684 26.6111 8.65913 14.525 9.53368 14.525C10.0586 14.525 11.0716 18.1157 11.3782 18.325C11.7688 18.5915 13.2515 18.9777 13.6839 19.275C14.0822 19.5489 13.6988 22.4572 14.2017 22.9167C14.6369 23.3143 16.4358 23.4444 16.9483 23.9722C17.4609 24.5 17.9997 29.25 18.9102 29.25C19.4512 29.25 21.1323 26.875 21.5233 26.875C22.3053 26.875 21.5186 38.75 22.8339 38.75C23.6373 38.75 24.2556 34.5278 24.7958 34C25.2562 33.5501 26.049 32.9008 26.3653 32.4167C26.7492 31.8292 27.7533 29.2889 27.9793 28.775C28.2114 28.2472 30.7151 24.5 31.6684 24.5C32.8926 24.5 36.2572 29.0292 36.9594 29.25C37.6615 29.4708 41.1368 29.5651 42.0602 29.25C42.6322 29.0548 47.7151 10.25 49.1229 10.25C50.2795 10.25 52.407 12.8889 53.0467 12.8889C53.971 12.8889 57.8809 0.750009 58.9323 0.75C60.2268 0.749979 64.587 17.4576 65.2102 18.1667C65.7007 18.7246 71.4725 22.3889 71.8806 22.9167C72.4579 23.6633 74.7557 30.3056 75.8665 30.3056C77.3407 30.3056 83.3161 12.8889 85.2213 12.8889C86.7969 12.8889 89.772 21.65 93 21.65" stroke="#E82C81" stroke-width="1.5" stroke-linecap="round"/>
</svg>
