<svg width="20" height="20" viewBox="0 0 20 20" fill="none" xmlns="http://www.w3.org/2000/svg">
<path d="M13.3334 4.99992H15.8334C16.0544 4.99992 16.2663 5.08772 16.4226 5.244C16.5789 5.40028 16.6667 5.61224 16.6667 5.83325V14.9999C16.6667 15.4419 16.4911 15.8659 16.1786 16.1784C15.866 16.491 15.4421 16.6666 15 16.6666C14.558 16.6666 14.1341 16.491 13.8215 16.1784C13.509 15.8659 13.3334 15.4419 13.3334 14.9999V4.16659C13.3334 3.94557 13.2456 3.73361 13.0893 3.57733C12.933 3.42105 12.7211 3.33325 12.5 3.33325H4.16671C3.94569 3.33325 3.73373 3.42105 3.57745 3.57733C3.42117 3.73361 3.33337 3.94557 3.33337 4.16659V14.1666C3.33337 14.8296 3.59677 15.4655 4.06561 15.9344C4.53445 16.4032 5.17033 16.6666 5.83337 16.6666H15M6.66671 6.66659H10M6.66671 9.99992H10M6.66671 13.3333H10" stroke="#94A3B8" stroke-width="1.5" stroke-linecap="round" stroke-linejoin="round"/>
</svg>
