<svg width="22" height="22" viewBox="0 0 22 22" fill="none" xmlns="http://www.w3.org/2000/svg">
<path d="M16.5367 12.4208C16.1517 12.7966 15.9317 13.3375 15.9867 13.915C16.0692 14.905 16.9767 15.6291 17.9667 15.6291H19.7084V16.72C19.7084 18.6175 18.1592 20.1666 16.2617 20.1666H6.99419C7.27835 19.9283 7.52585 19.635 7.71835 19.305C8.05752 18.755 8.25002 18.1041 8.25002 17.4166C8.24995 16.7259 8.05471 16.0492 7.6868 15.4646C7.31889 14.8799 6.79329 14.4112 6.17055 14.1122C5.54782 13.8133 4.85331 13.6965 4.16704 13.7751C3.48077 13.8537 2.83068 14.1246 2.29169 14.5566V10.5508C2.29169 8.65329 3.84085 7.10413 5.73835 7.10413H16.2617C18.1592 7.10413 19.7084 8.65329 19.7084 10.5508V11.8708H17.8567C17.3434 11.8708 16.8759 12.0725 16.5367 12.4208Z" stroke="#94A3B8" stroke-width="1.5" stroke-linecap="round" stroke-linejoin="round"/>
<path d="M2.29169 11.3759V7.1867C2.29169 6.09587 2.96085 5.1242 3.97835 4.7392L11.2567 1.9892C11.5204 1.88982 11.8043 1.85592 12.084 1.89041C12.3637 1.9249 12.6308 2.02674 12.8625 2.1872C13.0942 2.34766 13.2835 2.56194 13.4141 2.81166C13.5447 3.06137 13.6128 3.33905 13.6125 3.62087V7.1042M6.41669 11H12.8334M20.6791 12.8059V14.6942C20.6791 15.1984 20.2758 15.6109 19.7624 15.6292H17.9658C16.9758 15.6292 16.0683 14.905 15.9858 13.915C15.9308 13.3375 16.1508 12.7967 16.5358 12.4209C16.8749 12.0725 17.3424 11.8709 17.8558 11.8709H19.7624C20.2758 11.8892 20.6791 12.3017 20.6791 12.8059Z" stroke="#94A3B8" stroke-width="1.5" stroke-linecap="round" stroke-linejoin="round"/>
<path d="M8.25003 17.4167C8.25003 18.1042 8.05753 18.755 7.71836 19.305C7.52586 19.635 7.27836 19.9284 6.99419 20.1667C6.35253 20.7442 5.50919 21.0834 4.58336 21.0834C3.95138 21.0847 3.32995 20.9214 2.78024 20.6096C2.23054 20.2978 1.77152 19.8482 1.44836 19.305C1.09942 18.7371 0.91534 18.0833 0.916694 17.4167C0.916694 16.2617 1.44836 15.2259 2.29169 14.5567C2.83069 14.1247 3.48078 13.8538 4.16705 13.7752C4.85331 13.6965 5.54783 13.8134 6.17056 14.1123C6.79329 14.4112 7.3189 14.88 7.68681 15.4647C8.05472 16.0493 8.24996 16.726 8.25003 17.4167Z" stroke="#94A3B8" stroke-width="1.5" stroke-miterlimit="10" stroke-linecap="round" stroke-linejoin="round"/>
<path d="M3.15424 17.4166L4.06174 18.3241L6.01424 16.5183" stroke="#94A3B8" stroke-width="1.5" stroke-linecap="round" stroke-linejoin="round"/>
</svg>
