<svg width="26" height="25" viewBox="0 0 26 25" fill="none" xmlns="http://www.w3.org/2000/svg">
<path d="M17.0394 7.16597C15.9878 6.26946 14.7862 5.75885 13.4346 5.63416C12.8929 5.58417 12.3448 5.60728 11.7904 5.70349C9.93396 6.02705 8.49454 7.00204 7.47217 8.62845C6.95575 9.52281 6.67249 10.4846 6.62239 11.5139C6.60643 12.7501 6.92877 13.8912 7.58943 14.9371C7.69184 15.0752 7.78901 15.2171 7.88095 15.3628C7.9828 15.523 7.96408 15.6716 7.82479 15.8086L10.5566 13.5794C10.7025 13.4558 10.7383 13.3053 10.664 13.1279C10.6596 13.1183 10.5189 12.9256 10.242 12.5499C9.66116 11.7636 9.22788 10.9057 8.94214 9.97645C8.8056 9.53195 8.75495 9.05574 8.79019 8.54783C8.81496 8.1861 8.94351 7.88162 9.17585 7.63438C9.42635 7.36833 9.74512 7.22939 10.1322 7.21757C10.2935 7.21273 10.4451 7.21649 10.5872 7.22886C10.7237 7.24122 10.8721 7.27158 11.0323 7.31996C11.595 7.49088 12.1235 7.7357 12.6179 8.05442C13.4118 8.56664 14.0992 9.17103 14.68 9.86761C14.7681 9.97295 14.7648 10.0753 14.6701 10.1748L17.022 8.28293C17.078 8.21941 17.154 8.15829 17.25 8.09957C17.343 8.04206 17.4214 7.9429 17.4853 7.80208C17.5068 7.72683 17.5005 7.66475 17.4663 7.61584C17.3683 7.47502 17.226 7.32506 17.0394 7.16597Z" fill="#0F172A"/>
<path fill-rule="evenodd" clip-rule="evenodd" d="M17.1567 10.0597C16.9849 9.83612 16.9799 9.63252 17.1418 9.44896L14.8522 11.3531C14.7333 11.4773 14.5493 11.5856 14.4248 11.7028C14.323 11.7985 14.2649 11.8769 14.2506 11.9382C14.228 12.0393 14.2594 12.1427 14.3447 12.2486C14.8782 12.907 15.3377 13.6544 15.723 14.4907C15.9592 15.0029 16.1043 15.5235 16.1583 16.0523C16.2172 16.6242 16.1533 17.0773 15.9667 17.4116C15.6985 17.8927 15.2113 18.1082 14.5049 18.0582C14.0342 18.0249 13.5632 17.8881 13.092 17.6479C11.9655 17.0738 11.0378 16.3455 10.3089 15.463C10.1988 15.3302 10.209 15.1892 10.3394 15.0397C10.3582 15.0182 10.4705 14.9201 10.6764 14.7455L7.94454 16.9747C7.82562 17.0805 7.70643 17.1859 7.58696 17.2907C7.4763 17.388 7.43803 17.4936 7.47217 17.6075C7.49034 17.6688 7.54842 17.75 7.64642 17.851C7.99051 18.2063 8.37728 18.5116 8.80671 18.7669C10.738 19.8649 12.7338 19.9703 14.794 19.0829C15.9072 18.5454 16.7881 17.7594 17.4366 16.7247C18.0455 15.7229 18.3426 14.6356 18.3277 13.4628C18.2914 12.3233 17.9676 11.2758 17.3565 10.3201C17.3543 10.3164 17.2877 10.2296 17.1567 10.0597Z" fill="#0F172A"/>
<path d="M17.4527 8.07398C17.9563 7.86383 18.1476 7.34867 17.8184 7.05458C17.1413 6.4494 14.3536 6.74835 14.2224 7.15856C14.0932 7.5627 16.402 8.51262 17.4527 8.07398Z" stroke="url(#paint0_radial_19_24679)" stroke-width="0.3" stroke-miterlimit="10"/>
<path d="M16.205 9.42002C15.0547 9.8216 13.1234 6.96239 13.9206 6.28736C14.4108 5.87229 15.5973 5.92416 16.565 6.06057C17.4733 6.1886 18.7713 6.71215 19.0916 7.58165C19.2611 8.04325 19.1593 8.7009 18.8002 8.93121C18.5223 9.10941 18.1471 9.02924 18.0643 9.05888C17.6697 8.89574 17.6118 8.83233 17.2974 8.79407C16.8865 8.74402 16.5213 9.3096 16.205 9.42002Z" stroke="url(#paint1_radial_19_24679)" stroke-width="0.3" stroke-miterlimit="10"/>
<path d="M15.0379 10.8263C13.702 10.6137 12.2503 6.4375 13.6995 5.47641C14.6224 4.86431 16.2313 5.13459 17.3528 5.45819C18.383 5.75543 20.0983 6.74738 20.4454 8.16897C20.6471 8.99499 20.402 10.157 19.6996 10.4931C19.1397 10.761 18.4183 10.5306 18.2913 10.5129C17.5405 10.1103 17.4798 9.90554 16.9208 9.76767C16.1806 9.58534 15.5962 10.9156 15.0379 10.8263Z" stroke="url(#paint2_radial_19_24679)" stroke-width="0.3" stroke-miterlimit="10"/>
<path d="M13.9555 12.2232C12.4805 11.8314 11.4619 5.90667 13.5629 4.65623C14.919 3.84929 16.9508 4.33335 18.2252 4.84657C19.3781 5.31072 21.5037 6.77131 21.8838 8.74706C22.1131 9.93858 21.7304 11.6024 20.6837 12.0458C19.8426 12.4022 18.7684 12.0364 18.6031 11.9577C17.4475 11.4071 17.4329 10.9695 16.6283 10.732C15.5597 10.4157 14.7279 12.428 13.9555 12.2232Z" stroke="url(#paint3_radial_19_24679)" stroke-width="0.3" stroke-miterlimit="10"/>
<path d="M12.9381 13.5566C11.3046 12.9913 10.7412 5.31825 13.4915 3.77239C15.2825 2.77474 17.7363 3.46725 19.1626 4.17119C20.4396 4.80126 22.9727 6.73037 23.3878 9.26162C23.6429 10.8176 23.1245 12.9838 21.7332 13.5351C20.6104 13.9797 19.192 13.4583 18.9803 13.3393C17.4907 12.5026 17.4521 11.9681 16.4023 11.6328C15.0049 11.1825 13.9158 13.8949 12.9381 13.5566Z" stroke="url(#paint4_radial_19_24679)" stroke-width="0.3" stroke-miterlimit="10"/>
<path d="M22.8285 15.0068C21.4245 15.5394 19.6627 14.863 19.4031 14.7031C17.5835 13.5822 17.5163 12.953 16.2216 12.5166C14.4951 11.9346 13.1423 15.3542 11.9673 14.8732C10.1625 14.1342 10.0612 4.70299 13.4666 2.87167C15.6887 1.67675 18.5693 2.58342 20.1467 3.47904C21.5476 4.27432 24.4863 6.67194 24.9373 9.75917C25.2177 11.6794 24.5645 14.3483 22.8285 15.0068Z" stroke="url(#paint5_radial_19_24679)" stroke-width="0.3" stroke-miterlimit="10"/>
<path d="M7.63548 15.9786C8.18854 15.9832 8.85179 16.939 8.35579 17.0987C8.06932 17.191 7.31087 17.045 7.01295 16.7851C6.59337 16.4195 7.25491 15.9753 7.63548 15.9786Z" stroke="url(#paint6_radial_19_24679)" stroke-width="0.3" stroke-miterlimit="10"/>
<path d="M9.1385 16.9648C9.08438 17.0931 8.83095 17.15 8.5997 17.3063C8.13064 17.6233 8.06335 17.7739 7.7302 17.9651C7.60026 18.0398 7.42545 18.138 7.25479 18.093C6.99344 18.0242 6.92822 17.7261 6.59654 17.2011C6.16648 16.5189 6.00362 16.3425 6.1265 15.981C6.15514 15.8969 6.1922 15.6247 6.39931 15.4587C6.68613 15.2291 7.02233 15.4064 7.44264 15.2545C7.94742 15.0723 8.19768 14.7479 8.41673 14.8913C8.57106 14.9922 8.57679 15.2687 8.69235 15.7501C8.78036 16.1168 8.8357 16.3574 8.94273 16.5537C9.07109 16.7875 9.19872 16.8222 9.1385 16.9648Z" stroke="url(#paint7_radial_19_24679)" stroke-width="0.3" stroke-miterlimit="10"/>
<path d="M9.98387 16.6974C9.97448 16.9248 9.6161 17.0349 9.32074 17.3635C8.71502 18.0375 8.99563 18.5192 8.51011 19.0116C8.3041 19.2207 7.98082 19.4232 7.65682 19.3839C7.19701 19.3282 7.04257 18.8548 6.3347 17.895C5.40924 16.6402 5.01502 16.3945 5.10145 15.7258C5.11912 15.5895 5.13631 15.0662 5.49798 14.7512C5.98034 14.3312 6.5585 14.7133 7.31367 14.3976C8.15745 14.0453 8.47281 13.2922 8.75732 13.448C8.95492 13.5563 8.87922 13.9921 9.03111 14.8422C9.13862 15.4464 9.20506 15.7995 9.41996 16.0887C9.69119 16.4535 9.99399 16.4505 9.98387 16.6974Z" stroke="url(#paint8_radial_19_24679)" stroke-width="0.3" stroke-miterlimit="10"/>
<path d="M10.8301 16.433C10.8667 16.7589 10.4026 16.9228 10.0426 17.4237C9.30148 18.455 9.94047 19.2611 9.29087 20.0611C9.01282 20.4034 8.53595 20.7097 8.05969 20.6777C7.39961 20.6335 7.15569 19.9885 6.07274 18.5919C4.64896 16.7672 4.0358 16.4459 4.07603 15.4735C4.08395 15.2839 4.0803 14.5108 4.5963 14.0463C5.2743 13.4361 6.09565 14.0238 7.18421 13.5434C8.36785 13.0211 8.7472 11.8395 9.09803 12.0074C9.33878 12.1235 9.18458 12.7182 9.36999 13.937C9.49798 14.7787 9.57514 15.2426 9.89744 15.6264C10.3129 16.1211 10.791 16.0819 10.8301 16.433Z" stroke="url(#paint9_radial_19_24679)" stroke-width="0.3" stroke-miterlimit="10"/>
<path d="M11.6783 16.1693C11.7603 16.5933 11.1919 16.8116 10.7665 17.4846C9.89147 18.8737 10.8902 20.0011 10.0735 21.1113C9.72434 21.5862 9.09266 21.9963 8.4644 21.9723C7.60354 21.9392 7.27405 21.1204 5.81321 19.2894C3.89562 16.8916 3.0611 16.4956 3.05366 15.2218C3.0522 14.9788 3.02806 13.9568 3.69778 13.3421C4.57228 12.5426 5.63524 13.3354 7.05792 12.6898C8.58166 11.9982 9.02501 10.3871 9.44069 10.5673C9.72471 10.691 9.49188 11.4451 9.71081 13.0324C9.85965 14.1117 9.94705 14.6857 10.3767 15.1647C10.9368 15.7886 11.59 15.7133 11.6783 16.1693Z" stroke="url(#paint10_radial_19_24679)" stroke-width="0.3" stroke-miterlimit="10"/>
<path d="M12.528 15.9057C12.3906 15.3445 11.5625 15.4562 10.858 14.7031C10.3208 14.1289 10.2232 13.4449 10.0535 12.1279C9.80151 10.1722 10.1126 9.25858 9.7853 9.12751C9.30416 8.93473 8.79694 10.9755 6.93286 11.8363C5.17678 12.6473 3.87002 11.6476 2.80048 12.6381C1.97595 13.4018 2.02179 14.6729 2.03252 14.9703C2.08932 16.5451 3.14387 17.0162 5.5554 19.9872C7.39424 22.2525 7.80895 23.2449 8.87105 23.2669C9.65121 23.2831 10.4381 22.7689 10.858 22.1615C11.8414 20.7403 10.481 19.291 11.4919 17.5456C11.9818 16.6997 12.6559 16.4278 12.528 15.9057Z" stroke="url(#paint11_radial_19_24679)" stroke-width="0.3" stroke-miterlimit="10"/>
<path d="M5.49994 6.87298C5.64426 6.94586 5.9473 6.80544 5.97412 6.58667C6.00447 6.3385 5.66157 6.13321 5.51091 6.19699C5.33269 6.27254 5.30843 6.77653 5.49994 6.87298Z" stroke="url(#paint12_radial_19_24679)" stroke-width="0.3" stroke-miterlimit="10"/>
<path d="M5.09328 5.5544C4.84729 5.78362 4.73977 6.20427 4.61677 6.92534C4.49488 7.64032 4.51401 8.15221 4.62116 8.18938C4.67955 8.20942 4.84497 8.0526 4.98686 7.93769C5.25248 7.72317 5.70716 7.74698 5.8237 7.72377C6.25034 7.63874 6.37566 7.48083 6.554 7.17836C6.63652 7.03867 6.829 6.72892 6.91372 6.3645C7.04293 5.81265 7.62208 5.64259 7.5515 5.42138C7.49213 5.23675 6.91835 5.19192 6.54632 5.1867C6.01313 5.17917 5.4736 5.20043 5.09328 5.5544Z" stroke="url(#paint13_radial_19_24679)" stroke-width="0.3" stroke-miterlimit="10"/>
<path d="M4.66688 4.93817C4.26254 5.34777 4.10346 6.03518 3.85844 7.32073C3.60953 8.61247 3.61111 9.49849 3.73374 9.53153C3.82577 9.5568 4.12382 9.23745 4.37712 9.0092C4.8546 8.57712 5.70936 8.64818 5.8855 8.62049C6.68882 8.49683 6.88678 8.20056 7.19811 7.64057C7.32781 7.40734 7.68363 6.83885 7.84576 6.16747C8.09529 5.13896 9.27832 4.86965 9.18043 4.48835C9.09864 4.17082 8.00155 4.12211 7.31123 4.14823C6.33653 4.18601 5.35012 4.24577 4.66688 4.93817Z" stroke="url(#paint14_radial_19_24679)" stroke-width="0.3" stroke-miterlimit="10"/>
<path d="M4.24279 4.32594C3.67974 4.91581 3.47092 5.87047 3.10254 7.72013C2.72844 9.58899 2.71101 10.8471 2.84875 10.8784C2.97492 10.9076 3.40534 10.4265 3.76933 10.0844C4.45745 9.43362 5.71338 9.55327 5.94925 9.52193C7.12899 9.36499 7.4007 8.92611 7.84417 8.10739C8.02117 7.78075 8.5401 6.95339 8.77987 5.97542C9.14935 4.47013 10.9364 4.10182 10.8114 3.5603C10.7071 3.10988 9.08645 3.05534 8.0781 3.11498C6.66212 3.19455 5.22737 3.2944 4.24279 4.32594Z" stroke="url(#paint15_radial_19_24679)" stroke-width="0.3" stroke-miterlimit="10"/>
<path d="M3.82004 3.71409C3.09791 4.48422 2.83961 5.70624 2.34787 8.12002C1.84808 10.5657 1.81151 12.1955 1.96486 12.2258C2.12528 12.2577 2.68833 11.617 3.16277 11.1606C4.06287 10.2927 5.7185 10.4597 6.0141 10.4239C7.57027 10.2357 7.9178 9.65312 8.49146 8.57481C8.71648 8.155 9.39778 7.06855 9.71496 5.78386C10.2047 3.80191 12.5958 3.33448 12.4434 2.63274C12.3168 2.04967 10.1726 1.99148 8.84607 2.0821C6.98942 2.20685 5.10547 2.34303 3.82004 3.71409Z" stroke="url(#paint16_radial_19_24679)" stroke-width="0.3" stroke-miterlimit="10"/>
<path d="M6.07956 11.3262C8.01203 11.1075 8.43222 10.3787 9.13923 9.04248C9.41107 8.52877 10.2561 7.18395 10.6508 5.59266C11.2603 3.13381 14.2557 2.56739 14.0761 1.70554C13.9269 0.988851 11.2593 0.928113 9.61464 1.04959C7.3166 1.21965 4.98381 1.3919 3.39778 3.10247C2.51657 4.053 2.2089 5.54201 1.59368 8.52015C0.969187 11.5429 0.913482 13.544 1.0817 13.5734C1.27674 13.6074 1.97157 12.8081 2.55668 12.2372C3.66889 11.1522 5.7241 11.3664 6.07956 11.3262Z" stroke="url(#paint17_radial_19_24679)" stroke-width="0.3" stroke-miterlimit="10"/>
<path d="M21.7924 17.169C21.5729 16.3308 19.998 16.7245 18.1232 14.8367C17.4514 14.1602 17.001 13.4527 16.1119 13.3426C16.0221 13.3316 15.1314 13.2345 14.5028 13.8042C13.7119 14.5209 14.1946 15.5151 13.2716 16.9018C12.9316 17.4125 12.8751 17.2642 12.6255 17.667C11.5606 19.3865 13.1848 21.132 12.2477 22.8782C11.8163 23.682 11.1749 23.8665 11.2359 23.9715C11.499 24.4218 22.3853 19.4275 21.7924 17.169Z" stroke="url(#paint18_radial_19_24679)" stroke-width="0.3" stroke-miterlimit="10"/>
<path d="M15.8681 14.4885C15.8142 14.4957 15.2269 14.452 14.824 14.8548C14.3146 15.3634 14.6777 16.0637 14.0941 17.0091C13.8793 17.3573 13.8494 17.2629 13.6965 17.5383C13.0444 18.7134 14.2149 19.8956 13.6417 21.0459C13.3764 21.5785 12.9577 21.7005 13.02 21.7525C13.3017 21.9896 20.4873 18.4867 19.9229 16.9625C19.7113 16.3908 18.5561 16.5937 17.2342 15.3625C16.7535 14.9151 16.4281 14.4128 15.8681 14.4885Z" stroke="url(#paint19_radial_19_24679)" stroke-width="0.3" stroke-miterlimit="10"/>
<path d="M15.6243 15.6344C15.6089 15.6729 15.3217 15.6721 15.1452 15.9054C14.916 16.2081 15.1601 16.6114 14.9165 17.1164C14.8272 17.3018 14.8235 17.2622 14.7674 17.4095C14.5267 18.0432 15.2459 18.6584 15.0356 19.2137C14.9372 19.4752 14.7544 19.5197 14.8031 19.5337C15.1596 19.4833 18.582 17.5425 18.0541 16.756C17.8479 16.4487 17.1101 16.4634 16.3458 15.8882C16.0553 15.6695 15.8651 15.5094 15.6243 15.6344Z" stroke="url(#paint20_radial_19_24679)" stroke-width="0.3" stroke-miterlimit="10"/>
<path d="M15.3805 16.7803C15.5697 17.3312 16.3145 17.5185 16.5873 17.3148C16.9895 17.014 16.6464 16.6224 16.185 16.5495C15.8401 16.4954 15.164 16.1498 15.3805 16.7803Z" stroke="url(#paint21_radial_19_24679)" stroke-width="0.3" stroke-miterlimit="10"/>
<g filter="url(#filter0_d_19_24679)">
<path d="M12.5072 10.7656C12.5406 11.2136 12.7053 11.5957 13.0014 11.9119C13.3446 12.2783 13.7713 12.4773 14.2816 12.5089L14.2883 12.5199C13.8784 12.5454 13.5256 12.6746 13.2299 12.9077C12.7818 13.2607 12.5402 13.7176 12.5051 14.2783C12.5021 14.3253 12.4989 14.3253 12.4957 14.2783C12.4675 13.8641 12.3261 13.5042 12.0714 13.1985C11.9583 13.0627 11.8277 12.9441 11.6794 12.8427C11.3994 12.6509 11.0914 12.5441 10.7553 12.5223C10.6959 12.5185 10.6958 12.5139 10.755 12.5086C11.1089 12.4774 11.4242 12.3661 11.7008 12.1749C11.8467 12.074 11.9759 11.9538 12.0882 11.8143C12.3289 11.5154 12.4648 11.1659 12.496 10.7656C12.4999 10.717 12.5037 10.717 12.5072 10.7656Z" fill="url(#paint22_linear_19_24679)"/>
</g>
<defs>
<filter id="filter0_d_19_24679" x="10.7107" y="10.7291" width="5.07764" height="5.08435" filterUnits="userSpaceOnUse" color-interpolation-filters="sRGB">
<feFlood flood-opacity="0" result="BackgroundImageFix"/>
<feColorMatrix in="SourceAlpha" type="matrix" values="0 0 0 0 0 0 0 0 0 0 0 0 0 0 0 0 0 0 127 0" result="hardAlpha"/>
<feOffset dx="1" dy="1"/>
<feGaussianBlur stdDeviation="0.25"/>
<feComposite in2="hardAlpha" operator="out"/>
<feColorMatrix type="matrix" values="0 0 0 0 0 0 0 0 0 0 0 0 0 0 0 0 0 0 0.21 0"/>
<feBlend mode="normal" in2="BackgroundImageFix" result="effect1_dropShadow_19_24679"/>
<feBlend mode="normal" in="SourceGraphic" in2="effect1_dropShadow_19_24679" result="shape"/>
</filter>
<radialGradient id="paint0_radial_19_24679" cx="0" cy="0" r="1" gradientUnits="userSpaceOnUse" gradientTransform="translate(5.49387 12.5) rotate(-17.4047) scale(16.9229 17.5045)">
<stop stop-color="white" stop-opacity="0.46"/>
<stop offset="1" stop-color="white" stop-opacity="0"/>
</radialGradient>
<radialGradient id="paint1_radial_19_24679" cx="0" cy="0" r="1" gradientUnits="userSpaceOnUse" gradientTransform="translate(5.49387 12.5) rotate(-17.4047) scale(16.9229 17.5045)">
<stop stop-color="white" stop-opacity="0.46"/>
<stop offset="1" stop-color="white" stop-opacity="0"/>
</radialGradient>
<radialGradient id="paint2_radial_19_24679" cx="0" cy="0" r="1" gradientUnits="userSpaceOnUse" gradientTransform="translate(5.49387 12.5) rotate(-17.4047) scale(16.9229 17.5045)">
<stop stop-color="white" stop-opacity="0.46"/>
<stop offset="1" stop-color="white" stop-opacity="0"/>
</radialGradient>
<radialGradient id="paint3_radial_19_24679" cx="0" cy="0" r="1" gradientUnits="userSpaceOnUse" gradientTransform="translate(5.49387 12.5) rotate(-17.4047) scale(16.9229 17.5045)">
<stop stop-color="white" stop-opacity="0.46"/>
<stop offset="1" stop-color="white" stop-opacity="0"/>
</radialGradient>
<radialGradient id="paint4_radial_19_24679" cx="0" cy="0" r="1" gradientUnits="userSpaceOnUse" gradientTransform="translate(5.49387 12.5) rotate(-17.4047) scale(16.9229 17.5045)">
<stop stop-color="white" stop-opacity="0.46"/>
<stop offset="1" stop-color="white" stop-opacity="0"/>
</radialGradient>
<radialGradient id="paint5_radial_19_24679" cx="0" cy="0" r="1" gradientUnits="userSpaceOnUse" gradientTransform="translate(5.49387 12.5) rotate(-17.4047) scale(16.9229 17.5045)">
<stop stop-color="white" stop-opacity="0.46"/>
<stop offset="1" stop-color="white" stop-opacity="0"/>
</radialGradient>
<radialGradient id="paint6_radial_19_24679" cx="0" cy="0" r="1" gradientUnits="userSpaceOnUse" gradientTransform="translate(5.49387 12.5) rotate(-17.4047) scale(16.9229 17.5045)">
<stop stop-color="white" stop-opacity="0.46"/>
<stop offset="1" stop-color="white" stop-opacity="0"/>
</radialGradient>
<radialGradient id="paint7_radial_19_24679" cx="0" cy="0" r="1" gradientUnits="userSpaceOnUse" gradientTransform="translate(5.49387 12.5) rotate(-17.4047) scale(16.9229 17.5045)">
<stop stop-color="white" stop-opacity="0.46"/>
<stop offset="1" stop-color="white" stop-opacity="0"/>
</radialGradient>
<radialGradient id="paint8_radial_19_24679" cx="0" cy="0" r="1" gradientUnits="userSpaceOnUse" gradientTransform="translate(5.49387 12.5) rotate(-17.4047) scale(16.9229 17.5045)">
<stop stop-color="white" stop-opacity="0.46"/>
<stop offset="1" stop-color="white" stop-opacity="0"/>
</radialGradient>
<radialGradient id="paint9_radial_19_24679" cx="0" cy="0" r="1" gradientUnits="userSpaceOnUse" gradientTransform="translate(5.49387 12.5) rotate(-17.4047) scale(16.9229 17.5045)">
<stop stop-color="white" stop-opacity="0.46"/>
<stop offset="1" stop-color="white" stop-opacity="0"/>
</radialGradient>
<radialGradient id="paint10_radial_19_24679" cx="0" cy="0" r="1" gradientUnits="userSpaceOnUse" gradientTransform="translate(5.49387 12.5) rotate(-17.4047) scale(16.9229 17.5045)">
<stop stop-color="white" stop-opacity="0.46"/>
<stop offset="1" stop-color="white" stop-opacity="0"/>
</radialGradient>
<radialGradient id="paint11_radial_19_24679" cx="0" cy="0" r="1" gradientUnits="userSpaceOnUse" gradientTransform="translate(5.49387 12.5) rotate(-17.4047) scale(16.9229 17.5045)">
<stop stop-color="white" stop-opacity="0.46"/>
<stop offset="1" stop-color="white" stop-opacity="0"/>
</radialGradient>
<radialGradient id="paint12_radial_19_24679" cx="0" cy="0" r="1" gradientUnits="userSpaceOnUse" gradientTransform="translate(5.49387 12.5) rotate(-17.4047) scale(16.9229 17.5045)">
<stop stop-color="white" stop-opacity="0.46"/>
<stop offset="1" stop-color="white" stop-opacity="0"/>
</radialGradient>
<radialGradient id="paint13_radial_19_24679" cx="0" cy="0" r="1" gradientUnits="userSpaceOnUse" gradientTransform="translate(5.49387 12.5) rotate(-17.4047) scale(16.9229 17.5045)">
<stop stop-color="white" stop-opacity="0.46"/>
<stop offset="1" stop-color="white" stop-opacity="0"/>
</radialGradient>
<radialGradient id="paint14_radial_19_24679" cx="0" cy="0" r="1" gradientUnits="userSpaceOnUse" gradientTransform="translate(5.49387 12.5) rotate(-17.4047) scale(16.9229 17.5045)">
<stop stop-color="white" stop-opacity="0.46"/>
<stop offset="1" stop-color="white" stop-opacity="0"/>
</radialGradient>
<radialGradient id="paint15_radial_19_24679" cx="0" cy="0" r="1" gradientUnits="userSpaceOnUse" gradientTransform="translate(5.49387 12.5) rotate(-17.4047) scale(16.9229 17.5045)">
<stop stop-color="white" stop-opacity="0.46"/>
<stop offset="1" stop-color="white" stop-opacity="0"/>
</radialGradient>
<radialGradient id="paint16_radial_19_24679" cx="0" cy="0" r="1" gradientUnits="userSpaceOnUse" gradientTransform="translate(5.49387 12.5) rotate(-17.4047) scale(16.9229 17.5045)">
<stop stop-color="white" stop-opacity="0.46"/>
<stop offset="1" stop-color="white" stop-opacity="0"/>
</radialGradient>
<radialGradient id="paint17_radial_19_24679" cx="0" cy="0" r="1" gradientUnits="userSpaceOnUse" gradientTransform="translate(5.49387 12.5) rotate(-17.4047) scale(16.9229 17.5045)">
<stop stop-color="white" stop-opacity="0.46"/>
<stop offset="1" stop-color="white" stop-opacity="0"/>
</radialGradient>
<radialGradient id="paint18_radial_19_24679" cx="0" cy="0" r="1" gradientUnits="userSpaceOnUse" gradientTransform="translate(5.49387 12.5) rotate(-17.4047) scale(16.9229 17.5045)">
<stop stop-color="white" stop-opacity="0.46"/>
<stop offset="1" stop-color="white" stop-opacity="0"/>
</radialGradient>
<radialGradient id="paint19_radial_19_24679" cx="0" cy="0" r="1" gradientUnits="userSpaceOnUse" gradientTransform="translate(5.49387 12.5) rotate(-17.4047) scale(16.9229 17.5045)">
<stop stop-color="white" stop-opacity="0.46"/>
<stop offset="1" stop-color="white" stop-opacity="0"/>
</radialGradient>
<radialGradient id="paint20_radial_19_24679" cx="0" cy="0" r="1" gradientUnits="userSpaceOnUse" gradientTransform="translate(5.49387 12.5) rotate(-17.4047) scale(16.9229 17.5045)">
<stop stop-color="white" stop-opacity="0.46"/>
<stop offset="1" stop-color="white" stop-opacity="0"/>
</radialGradient>
<radialGradient id="paint21_radial_19_24679" cx="0" cy="0" r="1" gradientUnits="userSpaceOnUse" gradientTransform="translate(5.49387 12.5) rotate(-17.4047) scale(16.9229 17.5045)">
<stop stop-color="white" stop-opacity="0.46"/>
<stop offset="1" stop-color="white" stop-opacity="0"/>
</radialGradient>
<linearGradient id="paint22_linear_19_24679" x1="12.4995" y1="14.3135" x2="12.4995" y2="10.7291" gradientUnits="userSpaceOnUse">
<stop offset="0.03125" stop-color="#0F172A"/>
<stop offset="0.526042" stop-color="#2E3192"/>
<stop offset="1" stop-color="#1BFFFF"/>
</linearGradient>
</defs>
</svg>
