<svg width="174" height="74" viewBox="0 0 174 74" fill="none" xmlns="http://www.w3.org/2000/svg">
<path d="M30.383 24.0415C28.3255 22.2907 25.9745 21.2936 23.33 21.0501C22.27 20.9524 21.1976 20.9976 20.1129 21.1855C16.4805 21.8174 13.6642 23.7214 11.6638 26.8976C10.6534 28.6442 10.0991 30.5226 10.0011 32.5326C9.96987 34.9468 10.6006 37.1752 11.8932 39.2178C12.0936 39.4876 12.2837 39.7647 12.4636 40.0491C12.6629 40.3619 12.6263 40.6521 12.3537 40.9198L17.6988 36.5664C17.9843 36.325 18.0543 36.0311 17.9089 35.6847C17.9003 35.6658 17.6251 35.2895 17.0832 34.5558C15.9468 33.0202 15.099 31.345 14.5399 29.5301C14.2728 28.6621 14.1737 27.7321 14.2426 26.7402C14.2911 26.0338 14.5426 25.4391 14.9972 24.9563C15.4873 24.4367 16.111 24.1654 16.8683 24.1423C17.1839 24.1329 17.4807 24.1402 17.7586 24.1644C18.0258 24.1885 18.3161 24.2478 18.6296 24.3423C19.7305 24.6761 20.7646 25.1542 21.7319 25.7766C23.2852 26.7769 24.6301 27.9572 25.7666 29.3176C25.939 29.5233 25.9325 29.7233 25.7472 29.9174L30.349 26.2229C30.4586 26.0988 30.6073 25.9795 30.795 25.8648C30.9771 25.7525 31.1306 25.5588 31.2555 25.2838C31.2975 25.1368 31.2851 25.0156 31.2184 24.9201C31.0266 24.6451 30.7482 24.3522 30.383 24.0415Z" fill="#0F172A"/>
<path fill-rule="evenodd" clip-rule="evenodd" d="M30.6125 29.6928C30.2764 29.2561 30.2667 28.8585 30.5834 28.5L26.1036 32.2187C25.8709 32.4611 25.5108 32.6727 25.2674 32.9015C25.0681 33.0884 24.9545 33.2416 24.9264 33.3613C24.8823 33.5586 24.9437 33.7607 25.1107 33.9675C26.1545 35.2533 27.0534 36.7128 27.8075 38.346C28.2696 39.3463 28.5534 40.3629 28.659 41.3958C28.7743 42.5126 28.6493 43.3974 28.2841 44.0503C27.7595 44.9898 26.8062 45.4107 25.4241 45.313C24.5031 45.248 23.5816 44.9808 22.6595 44.5116C20.4555 43.3906 18.6403 41.9683 17.2141 40.2448C16.9987 39.9856 17.0186 39.71 17.2739 39.4182C17.3105 39.3763 17.5303 39.1847 17.9331 38.8436L12.588 43.197C12.3553 43.4037 12.1221 43.6095 11.8884 43.8141C11.6719 44.0041 11.597 44.2104 11.6638 44.4329C11.6993 44.5526 11.813 44.7111 12.0047 44.9084C12.678 45.6022 13.4347 46.1984 14.2749 46.697C18.0538 48.8414 21.9587 49.0471 25.9897 47.3142C28.1678 46.2645 29.8913 44.7294 31.1603 42.7089C32.3517 40.7523 32.9328 38.6289 32.9037 36.3386C32.8326 34.1133 32.1992 32.0676 31.0035 30.2013C30.9992 30.194 30.8689 30.0245 30.6125 29.6928Z" fill="#0F172A"/>
<path d="M48.5 25.5L50 23.5L51.5 25.5H48.5Z" fill="#0F172A"/>
<path d="M48.3 37.625V26.2H52V44H48.375L41.325 32.575V44H37.625V26.2H41.25L48.3 37.625ZM64.802 42.475C63.5853 43.775 62.002 44.425 60.052 44.425C58.102 44.425 56.5186 43.775 55.302 42.475C54.0686 41.1917 53.452 39.5667 53.452 37.6C53.452 35.65 54.0686 34.0167 55.302 32.7C56.5353 31.4167 58.1186 30.775 60.052 30.775C61.9853 30.775 63.5686 31.4167 64.802 32.7C66.0353 34.0167 66.652 35.65 66.652 37.6C66.652 39.5667 66.0353 41.1917 64.802 42.475ZM56.852 37.6C56.852 38.85 57.1436 39.8417 57.727 40.575C58.3103 41.3083 59.0853 41.675 60.052 41.675C61.0353 41.675 61.8186 41.3083 62.402 40.575C62.9686 39.8583 63.252 38.8667 63.252 37.6C63.252 36.3333 62.9686 35.3417 62.402 34.625C61.8186 33.8917 61.0353 33.525 60.052 33.525C59.0853 33.525 58.3103 33.8917 57.727 34.625C57.1436 35.3583 56.852 36.35 56.852 37.6ZM75.8469 38V31.1H79.3719V44H75.9219L75.8719 42.25C75.0385 43.6333 73.7969 44.325 72.1469 44.325C70.8135 44.325 69.7719 43.9167 69.0219 43.1C68.2885 42.2833 67.9219 41.1667 67.9219 39.75V31.1H71.4469V38.95C71.4469 39.65 71.6052 40.1917 71.9219 40.575C72.2552 40.9583 72.7219 41.15 73.3219 41.15C74.0719 41.15 74.6802 40.8667 75.1469 40.3C75.6135 39.7167 75.8469 38.95 75.8469 38ZM90 32.7L90.125 31.1H93.25V44.15C93.25 45.8333 92.7083 47.125 91.625 48.025C90.5583 48.9417 89.05 49.4 87.1 49.4C85.3 49.4 83.8917 49.025 82.875 48.275C81.875 47.525 81.3083 46.45 81.175 45.05H84.425C84.625 46.2 85.4917 46.775 87.025 46.775C87.9917 46.775 88.6833 46.5583 89.1 46.125C89.5167 45.7083 89.725 45.0667 89.725 44.2V42.425C88.8583 43.475 87.6917 44 86.225 44C84.5917 44 83.2667 43.375 82.25 42.125C81.2167 40.8917 80.7 39.2833 80.7 37.3C80.7 35.3 81.2167 33.7083 82.25 32.525C83.2667 31.3583 84.5917 30.775 86.225 30.775C87.8917 30.775 89.15 31.4167 90 32.7ZM87 41C87.85 41 88.5417 40.6583 89.075 39.975C89.625 39.2917 89.9 38.4 89.9 37.3C89.9 36.2 89.625 35.3083 89.075 34.625C88.5417 33.9417 87.85 33.6 87 33.6C86.1333 33.6 85.4333 33.9333 84.9 34.6C84.3667 35.2667 84.1 36.1667 84.1 37.3C84.1 38.4333 84.3667 39.3333 84.9 40C85.4333 40.6667 86.1333 41 87 41ZM102.468 30.775C103.801 30.775 104.835 31.1833 105.568 32C106.318 32.8167 106.693 33.9333 106.693 35.35V44H103.168V36.15C103.168 35.45 103.001 34.9083 102.668 34.525C102.351 34.1417 101.893 33.95 101.293 33.95C100.543 33.95 99.9348 34.2417 99.4682 34.825C99.0015 35.3917 98.7682 36.15 98.7682 37.1V44H95.2432V26.2H98.7682V32.825C99.6182 31.4583 100.851 30.775 102.468 30.775ZM115.246 33.7L112.846 33.625V39.95C112.846 40.3833 112.938 40.7 113.121 40.9C113.321 41.0833 113.638 41.175 114.071 41.175H115.246V44H112.946C111.646 44 110.713 43.725 110.146 43.175C109.596 42.6083 109.321 41.675 109.321 40.375V33.625L107.571 33.7V31.1L109.321 31.15V27.125H112.846V31.175L115.246 31.1V33.7ZM116.366 26.2H123.441C125.375 26.2 126.891 26.7083 127.991 27.725C129.091 28.7417 129.641 30.1417 129.641 31.925C129.641 33.775 129.075 35.2167 127.941 36.25C126.808 37.2833 125.2 37.8 123.116 37.8H120.066V44H116.366V26.2ZM120.066 34.675H122.791C123.858 34.675 124.666 34.4417 125.216 33.975C125.783 33.5083 126.066 32.8417 126.066 31.975C126.066 31.1417 125.808 30.4917 125.291 30.025C124.775 29.5583 124.066 29.325 123.166 29.325H120.066V34.675ZM134.049 44H130.524V26.2H134.049V44ZM147.468 44H143.893C143.71 43.1667 143.618 42.7333 143.618 42.7C142.701 43.8167 141.376 44.375 139.643 44.375C138.293 44.375 137.21 44.0167 136.393 43.3C135.576 42.5833 135.168 41.6333 135.168 40.45C135.168 38.3667 136.476 37.0667 139.093 36.55L143.593 35.65V34.7C143.593 33.7667 142.868 33.3 141.418 33.3C140.701 33.3 140.16 33.4333 139.793 33.7C139.426 33.9667 139.201 34.4 139.118 35L135.893 34.95C136.11 32.1833 137.943 30.8 141.393 30.8C145.11 30.8 146.968 32.4 146.968 35.6V41.3C146.968 42.5167 147.135 43.4167 147.468 44ZM140.643 41.775C141.526 41.775 142.235 41.5167 142.768 41C143.318 40.4667 143.593 39.75 143.593 38.85V37.9L140.293 38.6C139.176 38.8167 138.618 39.3583 138.618 40.225C138.618 40.6917 138.793 41.0667 139.143 41.35C139.51 41.6333 140.01 41.775 140.643 41.775ZM156.184 30.775C157.517 30.775 158.551 31.1833 159.284 32C160.034 32.8167 160.409 33.9333 160.409 35.35V44H156.884V36.15C156.884 35.45 156.717 34.9083 156.384 34.525C156.067 34.1417 155.609 33.95 155.009 33.95C154.259 33.95 153.651 34.2417 153.184 34.825C152.717 35.3917 152.484 36.15 152.484 37.1V44H148.959V31.1H152.409L152.459 32.85C153.292 31.4667 154.534 30.775 156.184 30.775Z" fill="#0F172A"/>
<path d="M118.896 23V18.932H120.48V18.68H117.06V18.932H118.644V23H118.896ZM123.211 23V21.23C123.211 20.534 123.511 19.934 124.303 19.934C124.975 19.934 125.365 20.36 125.365 21.284V23H125.617V21.236C125.617 20.276 125.125 19.688 124.303 19.688C123.847 19.688 123.433 19.865 123.193 20.285V18.68H122.959V23H123.211ZM129.701 23.09C130.331 23.09 130.835 22.778 131.099 22.226L130.889 22.106C130.649 22.58 130.235 22.838 129.701 22.838C128.954 22.838 128.513 22.331 128.489 21.452H131.177C131.177 20.324 130.631 19.67 129.701 19.67C128.777 19.67 128.219 20.318 128.219 21.38C128.219 22.436 128.783 23.09 129.701 23.09ZM129.701 19.922C130.409 19.922 130.829 20.375 130.898 21.2H128.495C128.549 20.387 128.984 19.922 129.701 19.922Z" fill="#667085"/>
<path d="M118.911 23.1445C122.52 22.4867 123.891 20.874 121.532 19.9534C116.679 18.0589 96.7005 18.9947 95.7605 20.2789C94.8345 21.544 111.381 24.5177 118.911 23.1445Z" stroke="url(#paint0_radial_22_27093)" stroke-width="0.5" stroke-miterlimit="10"/>
<path d="M109.969 27.3582C101.726 28.6154 87.884 19.6647 93.5974 17.5516C97.1102 16.2523 105.614 16.4146 112.549 16.8417C119.059 17.2425 128.361 18.8814 130.656 21.6033C131.871 23.0483 131.142 25.1071 128.568 25.828C126.576 26.3859 123.887 26.1349 123.294 26.2277C120.466 25.717 120.051 25.5185 117.798 25.3987C114.853 25.2421 112.236 27.0126 109.969 27.3582Z" stroke="url(#paint1_radial_22_27093)" stroke-width="0.5" stroke-miterlimit="10"/>
<path d="M101.605 31.7605C92.0311 31.0951 81.6272 18.0216 92.0127 15.013C98.6268 13.0968 110.158 13.9429 118.195 14.956C125.578 15.8865 137.871 18.9917 140.358 23.4419C141.804 26.0277 140.047 29.6653 135.014 30.7175C131.001 31.5559 125.831 30.835 124.921 30.7794C119.54 29.5193 119.105 28.8781 115.099 28.4465C109.794 27.8758 105.606 32.04 101.605 31.7605Z" stroke="url(#paint2_radial_22_27093)" stroke-width="0.5" stroke-miterlimit="10"/>
<path d="M93.8473 36.1335C83.2766 34.9068 75.9767 16.3599 91.0343 12.4455C100.752 9.91937 115.314 11.4347 124.447 13.0413C132.71 14.4943 147.943 19.0666 150.667 25.2516C152.31 28.9816 149.568 34.19 142.066 35.578C136.038 36.6937 128.34 35.5487 127.156 35.3023C118.874 33.5786 118.769 32.2088 113.003 31.4654C105.344 30.4752 99.3834 36.7747 93.8473 36.1335Z" stroke="url(#paint3_radial_22_27093)" stroke-width="0.5" stroke-miterlimit="10"/>
<path d="M86.5561 40.3077C74.8497 38.5379 70.8119 14.5179 90.5223 9.67866C103.357 6.55557 120.943 8.72344 131.165 10.9271C140.317 12.8995 158.471 18.9384 161.446 26.8624C163.274 31.7331 159.559 38.5144 149.588 40.2404C141.541 41.6321 131.376 39.9997 129.858 39.6274C119.183 37.0081 118.907 35.335 111.383 34.2851C101.368 32.8755 93.5634 41.3667 86.5561 40.3077Z" stroke="url(#paint4_radial_22_27093)" stroke-width="0.5" stroke-miterlimit="10"/>
<path d="M157.438 44.8473C147.375 46.5147 134.749 44.397 132.889 43.8966C119.849 40.3875 119.366 38.4182 110.088 37.0519C97.7148 35.23 88.0194 45.9348 79.5987 44.429C66.664 42.1158 65.938 12.5919 90.3441 6.85901C106.269 3.11837 126.914 5.95665 138.218 8.76033C148.258 11.2499 169.319 18.7555 172.551 28.4199C174.56 34.4311 169.879 42.7859 157.438 44.8473Z" stroke="url(#paint5_radial_22_27093)" stroke-width="0.5" stroke-miterlimit="10"/>
<path d="M48.554 47.8894C52.5176 47.9038 57.2709 50.8961 53.7162 51.3958C51.6632 51.6848 46.2276 51.2277 44.0925 50.4143C41.0855 49.2697 45.8266 47.8791 48.554 47.8894Z" stroke="url(#paint6_radial_22_27093)" stroke-width="0.5" stroke-miterlimit="10"/>
<path d="M59.3256 50.9767C58.9378 51.3783 57.1215 51.5566 55.4643 52.0456C52.1026 53.0381 51.6204 53.5097 49.2328 54.1082C48.3015 54.342 47.0488 54.6493 45.8257 54.5086C43.9527 54.293 43.4853 53.3598 41.1082 51.7163C38.0261 49.5808 36.859 49.0286 37.7396 47.897C37.9449 47.6338 38.2104 46.7817 39.6947 46.2618C41.7503 45.5431 44.1597 46.0983 47.172 45.6226C50.7896 45.0522 52.5831 44.0369 54.153 44.4856C55.259 44.8016 55.3 45.6671 56.1282 47.1741C56.759 48.3221 57.1556 49.0754 57.9226 49.6899C58.8425 50.4215 59.7572 50.5303 59.3256 50.9767Z" stroke="url(#paint7_radial_22_27093)" stroke-width="0.5" stroke-miterlimit="10"/>
<path d="M65.3841 50.1398C65.3169 50.8516 62.7485 51.1961 60.6317 52.2247C56.2907 54.3348 58.3018 55.8426 54.8222 57.3841C53.3458 58.0386 51.0289 58.6725 48.7069 58.5497C45.4116 58.3751 44.3047 56.8932 39.2317 53.8888C32.5992 49.9607 29.774 49.1914 30.3934 47.098C30.52 46.6714 30.6432 45.0332 33.2352 44.0472C36.6921 42.7322 40.8356 43.9285 46.2477 42.9402C52.2948 41.8375 54.5548 39.4799 56.5939 39.9677C58.01 40.3065 57.4675 41.6709 58.556 44.332C59.3265 46.2234 59.8026 47.3289 61.3428 48.2343C63.2866 49.3762 65.4566 49.3667 65.3841 50.1398Z" stroke="url(#paint8_radial_22_27093)" stroke-width="0.5" stroke-miterlimit="10"/>
<path d="M71.4488 49.3119C71.7108 50.3322 68.385 50.8452 65.8052 52.4134C60.4937 55.6418 65.0731 58.1652 60.4177 60.6696C58.4249 61.7412 55.0074 62.6998 51.5942 62.5998C46.8636 62.4614 45.1155 60.4422 37.3543 56.0703C27.1505 50.358 22.7562 49.3522 23.0445 46.3082C23.1013 45.7146 23.0751 43.2947 26.7731 41.8405C31.6321 39.9305 37.5185 41.7702 45.3199 40.2662C53.8027 38.6311 56.5213 34.9323 59.0356 35.4578C60.761 35.8214 59.6559 37.6831 60.9846 41.4983C61.9019 44.1331 62.4549 45.5854 64.7648 46.787C67.742 48.3354 71.1683 48.213 71.4488 49.3119Z" stroke="url(#paint9_radial_22_27093)" stroke-width="0.5" stroke-miterlimit="10"/>
<path d="M77.5273 48.4864C78.1153 49.8139 74.0416 50.4972 70.9927 52.6039C64.7219 56.9526 71.8794 60.4818 66.0262 63.957C63.5242 65.4438 58.9972 66.7276 54.4946 66.6523C48.3251 66.5489 45.9637 63.9855 35.4944 58.2538C21.7516 50.7474 15.7708 49.5078 15.7175 45.5203C15.7071 44.7598 15.5341 41.5603 20.3337 39.6361C26.601 37.1333 34.2189 39.6152 44.4148 37.5941C55.335 35.4289 58.5123 30.3855 61.4913 30.9498C63.5268 31.3369 61.8582 33.6976 63.4272 38.6665C64.4939 42.0451 65.1203 43.8422 68.1998 45.3416C72.2132 47.2946 76.8949 47.0589 77.5273 48.4864Z" stroke="url(#paint10_radial_22_27093)" stroke-width="0.5" stroke-miterlimit="10"/>
<path d="M83.6173 47.6612C82.6327 45.9044 76.6974 46.2542 71.6488 43.8966C67.7988 42.0991 67.099 39.9578 65.883 35.835C64.0772 29.7128 66.3067 26.8529 63.961 26.4425C60.5129 25.8391 56.8778 32.2275 43.5185 34.9224C30.9332 37.461 21.5681 34.3315 13.9031 37.4321C7.99395 39.8229 8.32243 43.8019 8.39931 44.7332C8.80641 49.6629 16.364 51.1376 33.6467 60.438C46.8251 67.5296 49.7972 70.6363 57.4089 70.7051C63.0001 70.7557 68.6392 69.1461 71.6488 67.2447C78.6962 62.7957 68.9467 58.2588 76.1916 52.7948C79.7026 50.147 84.5337 49.2956 83.6173 47.6612Z" stroke="url(#paint11_radial_22_27093)" stroke-width="0.5" stroke-miterlimit="10"/>
<path d="M33.2492 19.3849C34.2836 19.613 36.4554 19.1734 36.6476 18.4886C36.8651 17.7117 34.4076 17.0691 33.3278 17.2687C32.0506 17.5052 31.8768 19.0829 33.2492 19.3849Z" stroke="url(#paint12_radial_22_27093)" stroke-width="0.5" stroke-miterlimit="10"/>
<path d="M30.3348 15.2571C28.5719 15.9747 27.8013 17.2915 26.9199 19.5488C26.0463 21.787 26.1834 23.3894 26.9513 23.5058C27.3698 23.5685 28.5553 23.0776 29.5722 22.7179C31.4758 22.0463 34.7343 22.1209 35.5695 22.0482C38.6271 21.782 39.5252 21.2877 40.8033 20.3409C41.3948 19.9035 42.7742 18.9339 43.3813 17.7931C44.3074 16.0656 48.4579 15.5332 47.9521 14.8407C47.5266 14.2627 43.4145 14.1224 40.7483 14.1061C36.9271 14.0825 33.0605 14.149 30.3348 15.2571Z" stroke="url(#paint13_radial_22_27093)" stroke-width="0.5" stroke-miterlimit="10"/>
<path d="M27.2789 13.3281C24.3812 14.6103 23.2411 16.7622 21.4852 20.7865C19.7012 24.8302 19.7126 27.6039 20.5914 27.7073C21.251 27.7864 23.387 26.7867 25.2024 26.0722C28.6243 24.7196 34.7501 24.942 36.0124 24.8553C41.7695 24.4682 43.1883 23.5408 45.4195 21.7878C46.349 21.0577 48.8991 19.278 50.061 17.1763C51.8493 13.9566 60.3277 13.1136 59.6262 11.9199C59.04 10.9259 51.1775 10.7734 46.2302 10.8552C39.2448 10.9735 32.1755 11.1606 27.2789 13.3281Z" stroke="url(#paint14_radial_22_27093)" stroke-width="0.5" stroke-miterlimit="10"/>
<path d="M24.2396 11.4115C20.2044 13.2581 18.7079 16.2466 16.0679 22.0368C13.3867 27.8872 13.2618 31.8256 14.249 31.9237C15.1532 32.0149 18.2379 30.5091 20.8465 29.4379C25.7781 27.4008 34.7789 27.7754 36.4693 27.6773C44.9241 27.186 46.8714 25.8121 50.0496 23.2491C51.3181 22.2266 55.0371 19.6366 56.7555 16.5751C59.4034 11.8629 72.2106 10.7099 71.3151 9.01472C70.5673 7.60471 58.9526 7.43398 51.7261 7.62069C41.5782 7.86976 31.2958 8.18233 24.2396 11.4115Z" stroke="url(#paint15_radial_22_27093)" stroke-width="0.5" stroke-miterlimit="10"/>
<path d="M21.21 9.49614C16.0347 11.907 14.1835 15.7324 10.6593 23.2887C7.07754 30.9449 6.81544 36.0468 7.91445 36.1415C9.06412 36.2415 13.0993 34.2357 16.4994 32.807C22.9502 30.09 34.8156 30.6129 36.9341 30.5007C48.0866 29.9117 50.5773 28.0879 54.6885 24.7124C56.3012 23.3982 61.1838 19.9971 63.457 15.9754C66.9671 9.77107 84.103 8.30782 83.011 6.11104C82.1033 4.28578 66.7365 4.10363 57.2299 4.38731C43.9239 4.77784 30.4222 5.20412 21.21 9.49614Z" stroke="url(#paint16_radial_22_27093)" stroke-width="0.5" stroke-miterlimit="10"/>
<path d="M37.4032 33.3253C51.2526 32.6408 54.2639 30.3593 59.3309 26.1764C61.279 24.5682 67.3349 20.3583 70.1637 15.3769C74.5317 7.67962 95.999 5.90646 94.7122 3.2085C93.6429 0.964949 74.5247 0.774814 62.738 1.15508C46.2686 1.68744 29.5503 2.22666 18.1837 7.58152C11.8684 10.5571 9.6634 15.2183 5.25428 24.5412C0.77877 34.0037 0.379548 40.2681 1.58513 40.3602C2.98291 40.4666 7.9625 37.9645 12.1558 36.1773C20.1267 32.7808 34.8558 33.4512 37.4032 33.3253Z" stroke="url(#paint17_radial_22_27093)" stroke-width="0.5" stroke-miterlimit="10"/>
<path d="M150.012 51.6159C148.439 48.9921 137.152 50.2246 123.716 44.3149C118.902 42.1972 115.674 39.9822 109.301 39.6377C108.659 39.6031 102.275 39.2992 97.7698 41.0827C92.1018 43.3262 95.5613 46.4387 88.9463 50.7794C86.5098 52.3784 86.1045 51.9141 84.3162 53.175C76.6843 58.5576 88.3243 64.022 81.608 69.4883C78.5163 72.0045 73.9202 72.5821 74.357 72.9107C76.2423 74.3203 154.261 58.6862 150.012 51.6159Z" stroke="url(#paint18_radial_22_27093)" stroke-width="0.5" stroke-miterlimit="10"/>
<path d="M107.554 43.2247C107.168 43.2475 102.959 43.1106 100.072 44.3716C96.421 45.9637 99.0234 48.1559 94.8406 51.1155C93.3013 52.2053 93.0872 51.9099 91.9917 52.7719C87.3179 56.4506 95.7063 60.1513 91.5986 63.7524C89.6976 65.4195 86.6968 65.8016 87.1432 65.9644C89.1621 66.7067 140.659 55.741 136.614 50.9695C135.098 49.18 126.818 49.815 117.345 45.9607C113.9 44.5602 111.568 42.9878 107.554 43.2247Z" stroke="url(#paint19_radial_22_27093)" stroke-width="0.5" stroke-miterlimit="10"/>
<path d="M105.807 46.8121C105.697 46.9326 103.639 46.93 102.374 47.6604C100.731 48.6081 102.48 49.8705 100.735 51.4513C100.094 52.0316 100.068 51.9076 99.6664 52.3689C97.941 54.3527 103.095 56.2783 101.588 58.0169C100.883 58.8352 99.5729 58.9748 99.9224 59.0185C102.477 58.8607 127.004 52.7853 123.221 50.3231C121.743 49.361 116.456 49.407 110.978 47.6065C108.896 46.922 107.533 46.4208 105.807 46.8121Z" stroke="url(#paint20_radial_22_27093)" stroke-width="0.5" stroke-miterlimit="10"/>
<path d="M104.06 50.3991C105.416 52.1236 110.753 52.71 112.709 52.0723C115.591 51.1307 113.132 49.9048 109.826 49.6766C107.354 49.5074 102.508 48.4255 104.06 50.3991Z" stroke="url(#paint21_radial_22_27093)" stroke-width="0.5" stroke-miterlimit="10"/>
<g filter="url(#filter0_d_22_27093)">
<path d="M21.5151 31.0712C21.5804 31.9461 21.9027 32.6923 22.482 33.3099C23.1535 34.0254 23.9884 34.414 24.9869 34.4757L25 34.4973C24.198 34.547 23.5077 34.7994 22.9291 35.2545C22.0524 35.944 21.5797 36.8362 21.5109 37.9311C21.505 38.023 21.4989 38.023 21.4926 37.9311C21.4375 37.1224 21.1607 36.4195 20.6623 35.8225C20.4411 35.5573 20.1854 35.3256 19.8954 35.1275C19.3475 34.753 18.7448 34.5444 18.0873 34.5019C17.9711 34.4944 17.9709 34.4855 18.0868 34.4752C18.7792 34.4142 19.396 34.1969 19.9373 33.8234C20.2228 33.6263 20.4755 33.3916 20.6953 33.1191C21.1661 32.5355 21.4321 31.8529 21.4931 31.0712C21.5008 30.9763 21.5081 30.9763 21.5151 31.0712Z" fill="url(#paint22_linear_22_27093)"/>
</g>
<defs>
<filter id="filter0_d_22_27093" x="18" y="31" width="8.5" height="8.5" filterUnits="userSpaceOnUse" color-interpolation-filters="sRGB">
<feFlood flood-opacity="0" result="BackgroundImageFix"/>
<feColorMatrix in="SourceAlpha" type="matrix" values="0 0 0 0 0 0 0 0 0 0 0 0 0 0 0 0 0 0 127 0" result="hardAlpha"/>
<feOffset dx="1" dy="1"/>
<feGaussianBlur stdDeviation="0.25"/>
<feComposite in2="hardAlpha" operator="out"/>
<feColorMatrix type="matrix" values="0 0 0 0 0 0 0 0 0 0 0 0 0 0 0 0 0 0 0.21 0"/>
<feBlend mode="normal" in2="BackgroundImageFix" result="effect1_dropShadow_22_27093"/>
<feBlend mode="normal" in="SourceGraphic" in2="effect1_dropShadow_22_27093" result="shape"/>
</filter>
<radialGradient id="paint0_radial_22_27093" cx="0" cy="0" r="1" gradientUnits="userSpaceOnUse" gradientTransform="translate(33.2058 37) rotate(-7.79676) scale(116.808 56.895)">
<stop stop-color="white" stop-opacity="0.61"/>
<stop offset="1" stop-color="white" stop-opacity="0"/>
</radialGradient>
<radialGradient id="paint1_radial_22_27093" cx="0" cy="0" r="1" gradientUnits="userSpaceOnUse" gradientTransform="translate(33.2058 37) rotate(-7.79676) scale(116.808 56.895)">
<stop stop-color="white" stop-opacity="0.61"/>
<stop offset="1" stop-color="white" stop-opacity="0"/>
</radialGradient>
<radialGradient id="paint2_radial_22_27093" cx="0" cy="0" r="1" gradientUnits="userSpaceOnUse" gradientTransform="translate(33.2058 37) rotate(-7.79676) scale(116.808 56.895)">
<stop stop-color="white" stop-opacity="0.61"/>
<stop offset="1" stop-color="white" stop-opacity="0"/>
</radialGradient>
<radialGradient id="paint3_radial_22_27093" cx="0" cy="0" r="1" gradientUnits="userSpaceOnUse" gradientTransform="translate(33.2058 37) rotate(-7.79676) scale(116.808 56.895)">
<stop stop-color="white" stop-opacity="0.61"/>
<stop offset="1" stop-color="white" stop-opacity="0"/>
</radialGradient>
<radialGradient id="paint4_radial_22_27093" cx="0" cy="0" r="1" gradientUnits="userSpaceOnUse" gradientTransform="translate(33.2058 37) rotate(-7.79676) scale(116.808 56.895)">
<stop stop-color="white" stop-opacity="0.61"/>
<stop offset="1" stop-color="white" stop-opacity="0"/>
</radialGradient>
<radialGradient id="paint5_radial_22_27093" cx="0" cy="0" r="1" gradientUnits="userSpaceOnUse" gradientTransform="translate(33.2058 37) rotate(-7.79676) scale(116.808 56.895)">
<stop stop-color="white" stop-opacity="0.61"/>
<stop offset="1" stop-color="white" stop-opacity="0"/>
</radialGradient>
<radialGradient id="paint6_radial_22_27093" cx="0" cy="0" r="1" gradientUnits="userSpaceOnUse" gradientTransform="translate(33.2058 37) rotate(-7.79676) scale(116.808 56.895)">
<stop stop-color="white" stop-opacity="0.61"/>
<stop offset="1" stop-color="white" stop-opacity="0"/>
</radialGradient>
<radialGradient id="paint7_radial_22_27093" cx="0" cy="0" r="1" gradientUnits="userSpaceOnUse" gradientTransform="translate(33.2058 37) rotate(-7.79676) scale(116.808 56.895)">
<stop stop-color="white" stop-opacity="0.61"/>
<stop offset="1" stop-color="white" stop-opacity="0"/>
</radialGradient>
<radialGradient id="paint8_radial_22_27093" cx="0" cy="0" r="1" gradientUnits="userSpaceOnUse" gradientTransform="translate(33.2058 37) rotate(-7.79676) scale(116.808 56.895)">
<stop stop-color="white" stop-opacity="0.61"/>
<stop offset="1" stop-color="white" stop-opacity="0"/>
</radialGradient>
<radialGradient id="paint9_radial_22_27093" cx="0" cy="0" r="1" gradientUnits="userSpaceOnUse" gradientTransform="translate(33.2058 37) rotate(-7.79676) scale(116.808 56.895)">
<stop stop-color="white" stop-opacity="0.61"/>
<stop offset="1" stop-color="white" stop-opacity="0"/>
</radialGradient>
<radialGradient id="paint10_radial_22_27093" cx="0" cy="0" r="1" gradientUnits="userSpaceOnUse" gradientTransform="translate(33.2058 37) rotate(-7.79676) scale(116.808 56.895)">
<stop stop-color="white" stop-opacity="0.61"/>
<stop offset="1" stop-color="white" stop-opacity="0"/>
</radialGradient>
<radialGradient id="paint11_radial_22_27093" cx="0" cy="0" r="1" gradientUnits="userSpaceOnUse" gradientTransform="translate(33.2058 37) rotate(-7.79676) scale(116.808 56.895)">
<stop stop-color="white" stop-opacity="0.61"/>
<stop offset="1" stop-color="white" stop-opacity="0"/>
</radialGradient>
<radialGradient id="paint12_radial_22_27093" cx="0" cy="0" r="1" gradientUnits="userSpaceOnUse" gradientTransform="translate(33.2058 37) rotate(-7.79676) scale(116.808 56.895)">
<stop stop-color="white" stop-opacity="0.61"/>
<stop offset="1" stop-color="white" stop-opacity="0"/>
</radialGradient>
<radialGradient id="paint13_radial_22_27093" cx="0" cy="0" r="1" gradientUnits="userSpaceOnUse" gradientTransform="translate(33.2058 37) rotate(-7.79676) scale(116.808 56.895)">
<stop stop-color="white" stop-opacity="0.61"/>
<stop offset="1" stop-color="white" stop-opacity="0"/>
</radialGradient>
<radialGradient id="paint14_radial_22_27093" cx="0" cy="0" r="1" gradientUnits="userSpaceOnUse" gradientTransform="translate(33.2058 37) rotate(-7.79676) scale(116.808 56.895)">
<stop stop-color="white" stop-opacity="0.61"/>
<stop offset="1" stop-color="white" stop-opacity="0"/>
</radialGradient>
<radialGradient id="paint15_radial_22_27093" cx="0" cy="0" r="1" gradientUnits="userSpaceOnUse" gradientTransform="translate(33.2058 37) rotate(-7.79676) scale(116.808 56.895)">
<stop stop-color="white" stop-opacity="0.61"/>
<stop offset="1" stop-color="white" stop-opacity="0"/>
</radialGradient>
<radialGradient id="paint16_radial_22_27093" cx="0" cy="0" r="1" gradientUnits="userSpaceOnUse" gradientTransform="translate(33.2058 37) rotate(-7.79676) scale(116.808 56.895)">
<stop stop-color="white" stop-opacity="0.61"/>
<stop offset="1" stop-color="white" stop-opacity="0"/>
</radialGradient>
<radialGradient id="paint17_radial_22_27093" cx="0" cy="0" r="1" gradientUnits="userSpaceOnUse" gradientTransform="translate(33.2058 37) rotate(-7.79676) scale(116.808 56.895)">
<stop stop-color="white" stop-opacity="0.61"/>
<stop offset="1" stop-color="white" stop-opacity="0"/>
</radialGradient>
<radialGradient id="paint18_radial_22_27093" cx="0" cy="0" r="1" gradientUnits="userSpaceOnUse" gradientTransform="translate(33.2058 37) rotate(-7.79676) scale(116.808 56.895)">
<stop stop-color="white" stop-opacity="0.61"/>
<stop offset="1" stop-color="white" stop-opacity="0"/>
</radialGradient>
<radialGradient id="paint19_radial_22_27093" cx="0" cy="0" r="1" gradientUnits="userSpaceOnUse" gradientTransform="translate(33.2058 37) rotate(-7.79676) scale(116.808 56.895)">
<stop stop-color="white" stop-opacity="0.61"/>
<stop offset="1" stop-color="white" stop-opacity="0"/>
</radialGradient>
<radialGradient id="paint20_radial_22_27093" cx="0" cy="0" r="1" gradientUnits="userSpaceOnUse" gradientTransform="translate(33.2058 37) rotate(-7.79676) scale(116.808 56.895)">
<stop stop-color="white" stop-opacity="0.61"/>
<stop offset="1" stop-color="white" stop-opacity="0"/>
</radialGradient>
<radialGradient id="paint21_radial_22_27093" cx="0" cy="0" r="1" gradientUnits="userSpaceOnUse" gradientTransform="translate(33.2058 37) rotate(-7.79676) scale(116.808 56.895)">
<stop stop-color="white" stop-opacity="0.61"/>
<stop offset="1" stop-color="white" stop-opacity="0"/>
</radialGradient>
<linearGradient id="paint22_linear_22_27093" x1="21.5" y1="38" x2="21.5" y2="31" gradientUnits="userSpaceOnUse">
<stop offset="0.03125" stop-color="#0F172A"/>
<stop offset="0.526042" stop-color="#2E3192"/>
<stop offset="1" stop-color="#1BFFFF"/>
</linearGradient>
</defs>
</svg>
