<svg width="24" height="24" viewBox="0 0 24 24" fill="none" xmlns="http://www.w3.org/2000/svg">
<path d="M19.86 17.29L16.07 17.22C15.55 17.21 14.86 17.54 14.55 17.96L12.67 20.44C11.47 22.03 9.99996 21.77 9.39996 19.87L8.38996 16.64C8.21996 16.1 7.62996 15.53 7.07996 15.39L4.13996 14.62C1.81996 14.01 1.58996 12.49 3.62996 11.23L6.47996 9.47003C6.99996 9.15003 7.38996 8.39003 7.35996 7.79003L7.18996 4.45003C7.06996 2.06003 8.44996 1.38003 10.27 2.94003L12.57 4.92003C13 5.29003 13.8 5.46003 14.34 5.29003L17.58 4.27003C19.48 3.68003 20.53 4.74003 19.91 6.63003L18.94 9.58003C18.78 10.08 18.89 10.83 19.2 11.25L21.42 14.33C22.61 16 21.91 17.33 19.86 17.29Z" fill="black"/>
<path d="M3.52989 21.4399L6.55989 18.4099C6.69937 18.2688 6.77759 18.0784 6.77759 17.8799C6.77759 17.6815 6.69937 17.4911 6.55989 17.3499C6.26989 17.0599 5.78989 17.0599 5.49989 17.3499L2.46988 20.3799C2.31988 20.5299 2.24989 20.7199 2.24989 20.9099C2.24989 21.0999 2.31988 21.2899 2.46988 21.4399C2.75988 21.7299 3.23989 21.7299 3.52989 21.4399Z" fill="black"/>
</svg>
